<svg width="181" height="20" viewBox="0 0 181 20" fill="none" xmlns="http://www.w3.org/2000/svg">
<path d="M0.916016 15V5.10156H4.70312C6.84961 5.10156 7.91602 6.19531 7.91602 7.67188C7.91602 8.875 7.15039 9.54492 6.17969 9.77734V9.87305C7.23242 9.92773 8.29883 10.8027 8.29883 12.3066C8.29883 13.8516 7.19141 15 4.92188 15H0.916016ZM4.64844 13.5098C5.94727 13.5098 6.49414 12.9492 6.49414 12.1699C6.49414 11.2812 5.79688 10.5977 4.68945 10.5977H2.69336V13.5098H4.64844ZM4.48438 9.3125C5.42773 9.3125 6.13867 8.76562 6.13867 7.89062C6.13867 7.125 5.5918 6.57812 4.52539 6.57812H2.69336V9.3125H4.48438ZM9.66602 15V7.57617H11.3613V8.80664H11.4434C11.7031 7.95898 12.4277 7.4668 13.2754 7.4668C13.4668 7.4668 13.7402 7.48047 13.9043 7.50781V9.12109C13.7539 9.06641 13.3848 9.01172 13.0977 9.01172C12.127 9.01172 11.416 9.68164 11.416 10.625V15H9.66602ZM14.4648 12.9082C14.4648 11.2402 15.8457 10.748 17.2266 10.666C17.7393 10.6318 18.8057 10.5703 19.127 10.5566V9.96875C19.127 9.23047 18.6484 8.80664 17.7871 8.80664C17.0078 8.80664 16.5293 9.16211 16.3926 9.69531H14.7109C14.834 8.4375 15.9688 7.48047 17.8281 7.48047C19.2363 7.48047 20.8633 8.05469 20.8633 10.0371V15H19.1953V13.9746H19.1406C18.8125 14.6035 18.1152 15.1504 16.9531 15.1504C15.5312 15.1504 14.4648 14.3711 14.4648 12.9082ZM16.1465 12.8945C16.1465 13.5371 16.666 13.8652 17.4043 13.8652C18.457 13.8652 19.1406 13.168 19.1406 12.334V11.7188L17.5 11.8281C16.666 11.8965 16.1465 12.2383 16.1465 12.8945ZM24.2539 10.6523V15H22.5039V7.57617H24.1719V8.83398H24.2676C24.6094 8 25.3613 7.48047 26.4688 7.48047C28.0137 7.48047 29.0254 8.49219 29.0117 10.2695V15H27.2754V10.543C27.2754 9.54492 26.7422 8.95703 25.8262 8.95703C24.8965 8.95703 24.2539 9.57227 24.2539 10.6523ZM33.4414 15.1367C31.6914 15.1367 30.3789 13.7422 30.3789 11.2949C30.3789 8.82031 31.7324 7.48047 33.4551 7.48047C34.7676 7.48047 35.3145 8.25977 35.5742 8.79297H35.6426V5.10156H37.3789V15H35.6699V13.8242H35.5742C35.3008 14.3711 34.7266 15.1367 33.4414 15.1367ZM33.9199 13.7012C35.041 13.7012 35.6836 12.7305 35.6836 11.2812C35.6836 9.8457 35.0547 8.90234 33.9199 8.90234C32.7578 8.90234 32.1562 9.90039 32.1562 11.2812C32.1562 12.6895 32.7715 13.7012 33.9199 13.7012ZM42.5469 5.10156H44.7344L47.6738 12.293H47.7969L50.7363 5.10156H52.9238V15H51.2148V8.19141H51.1191L48.3711 14.9727H47.0996L44.3516 8.16406H44.2695V15H42.5469V5.10156ZM54.332 12.9082C54.332 11.2402 55.7129 10.748 57.0938 10.666C57.6064 10.6318 58.6729 10.5703 58.9941 10.5566V9.96875C58.9941 9.23047 58.5156 8.80664 57.6543 8.80664C56.875 8.80664 56.3965 9.16211 56.2598 9.69531H54.5781C54.7012 8.4375 55.8359 7.48047 57.6953 7.48047C59.1035 7.48047 60.7305 8.05469 60.7305 10.0371V15H59.0625V13.9746H59.0078C58.6797 14.6035 57.9824 15.1504 56.8203 15.1504C55.3984 15.1504 54.332 14.3711 54.332 12.9082ZM56.0137 12.8945C56.0137 13.5371 56.5332 13.8652 57.2715 13.8652C58.3242 13.8652 59.0078 13.168 59.0078 12.334V11.7188L57.3672 11.8281C56.5332 11.8965 56.0137 12.2383 56.0137 12.8945ZM64.1211 10.6523V15H62.3711V7.57617H64.0391V8.83398H64.1348C64.4766 8 65.2285 7.48047 66.3359 7.48047C67.8809 7.48047 68.8926 8.49219 68.8789 10.2695V15H67.1426V10.543C67.1426 9.54492 66.6094 8.95703 65.6934 8.95703C64.7637 8.95703 64.1211 9.57227 64.1211 10.6523ZM70.2051 12.9082C70.2051 11.2402 71.5859 10.748 72.9668 10.666C73.4795 10.6318 74.5459 10.5703 74.8672 10.5566V9.96875C74.8672 9.23047 74.3887 8.80664 73.5273 8.80664C72.748 8.80664 72.2695 9.16211 72.1328 9.69531H70.4512C70.5742 8.4375 71.709 7.48047 73.5684 7.48047C74.9766 7.48047 76.6035 8.05469 76.6035 10.0371V15H74.9355V13.9746H74.8809C74.5527 14.6035 73.8555 15.1504 72.6934 15.1504C71.2715 15.1504 70.2051 14.3711 70.2051 12.9082ZM71.8867 12.8945C71.8867 13.5371 72.4062 13.8652 73.1445 13.8652C74.1973 13.8652 74.8809 13.168 74.8809 12.334V11.7188L73.2402 11.8281C72.4062 11.8965 71.8867 12.2383 71.8867 12.8945ZM81.4844 17.9395C79.5156 17.9395 78.2715 17.0645 78.1484 15.6699H79.8848C80.0078 16.3125 80.623 16.627 81.5117 16.627C82.5508 16.627 83.2344 16.1758 83.2344 15.082V13.6602H83.1523C82.8789 14.207 82.291 14.8906 81.0059 14.8906C79.2969 14.8906 77.9434 13.6465 77.9434 11.2266C77.9434 8.7793 79.2969 7.48047 81.0195 7.48047C82.332 7.48047 82.8789 8.25977 83.1523 8.79297H83.2344V7.57617H84.957V15.123C84.957 17.0234 83.4941 17.9395 81.4844 17.9395ZM81.4844 13.5234C82.6055 13.5234 83.248 12.6758 83.248 11.2539C83.248 9.8457 82.6191 8.90234 81.4844 8.90234C80.3223 8.90234 79.7207 9.90039 79.7207 11.2539C79.7207 12.6211 80.3359 13.5234 81.4844 13.5234ZM89.9199 15.1504C87.6777 15.1504 86.3105 13.6602 86.3105 11.3359C86.3105 9.03906 87.7051 7.48047 89.8242 7.48047C91.6426 7.48047 93.2148 8.61523 93.2148 11.2266V11.7734H88.0332C88.0537 13.0381 88.7988 13.7832 89.9336 13.7832C90.6992 13.7832 91.2188 13.4551 91.4375 13.0176H93.1465C92.832 14.3027 91.6426 15.1504 89.9199 15.1504ZM88.0469 10.584H91.5469C91.5332 9.57227 90.8633 8.83398 89.8516 8.83398C88.7988 8.83398 88.1016 9.63379 88.0469 10.584ZM94.5684 15V7.57617H96.2363V8.83398H96.332C96.6328 7.98633 97.3848 7.48047 98.3691 7.48047C99.3809 7.48047 100.092 7.98633 100.379 8.83398H100.461C100.789 8.01367 101.609 7.48047 102.689 7.48047C104.043 7.48047 105 8.35547 105 10.0098V15H103.264V10.2832C103.264 9.35352 102.703 8.94336 101.992 8.94336C101.131 8.94336 100.639 9.53125 100.639 10.3652V15H98.9434V10.2148C98.9434 9.44922 98.4238 8.94336 97.6855 8.94336C96.9336 8.94336 96.3184 9.55859 96.3184 10.4883V15H94.5684ZM109.963 15.1504C107.721 15.1504 106.354 13.6602 106.354 11.3359C106.354 9.03906 107.748 7.48047 109.867 7.48047C111.686 7.48047 113.258 8.61523 113.258 11.2266V11.7734H108.076C108.097 13.0381 108.842 13.7832 109.977 13.7832C110.742 13.7832 111.262 13.4551 111.48 13.0176H113.189C112.875 14.3027 111.686 15.1504 109.963 15.1504ZM108.09 10.584H111.59C111.576 9.57227 110.906 8.83398 109.895 8.83398C108.842 8.83398 108.145 9.63379 108.09 10.584ZM116.361 10.6523V15H114.611V7.57617H116.279V8.83398H116.375C116.717 8 117.469 7.48047 118.576 7.48047C120.121 7.48047 121.133 8.49219 121.119 10.2695V15H119.383V10.543C119.383 9.54492 118.85 8.95703 117.934 8.95703C117.004 8.95703 116.361 9.57227 116.361 10.6523ZM126.492 7.57617V8.91602H125.029V12.7715C125.029 13.4824 125.385 13.6328 125.822 13.6328C126.027 13.6328 126.369 13.6191 126.588 13.6055V15.0273C126.383 15.0684 126.041 15.0957 125.604 15.0957C124.291 15.0957 123.279 14.4531 123.293 13.0586V8.91602H122.227V7.57617H123.293V5.79883H125.029V7.57617H126.492Z" fill="#C9C9C9"/>
</svg>
