<svg width="40" height="40" viewBox="0 0 40 40" fill="none" xmlns="http://www.w3.org/2000/svg">
<path d="M27.8445 12.1562C28.1371 12.449 28.137 12.924 27.8445 13.2169L21.0607 20.0007L27.8438 26.7838C28.1367 27.0767 28.1367 27.5516 27.8438 27.8445C27.5509 28.1372 27.0759 28.1373 26.7831 27.8445L20 21.0614L13.2169 27.8445C12.9241 28.1373 12.4491 28.1372 12.1562 27.8445C11.8633 27.5516 11.8633 27.0767 12.1562 26.7838L18.9393 20.0007L12.1555 13.2169C11.8627 12.9241 11.8628 12.4491 12.1555 12.1562C12.4484 11.8633 12.9233 11.8633 13.2162 12.1562L20 18.94L26.7838 12.1562C27.0767 11.8636 27.5517 11.8634 27.8445 12.1562Z" fill="white"/>
</svg>
