<svg width="181" height="20" viewBox="0 0 181 20" fill="none" xmlns="http://www.w3.org/2000/svg">
<path d="M4.2793 15H0.916016V5.10156H4.33398C7.28711 5.10156 9.07812 6.96094 9.07812 10.0371C9.07812 13.127 7.28711 15 4.2793 15ZM2.69336 13.4551H4.18359C6.24805 13.4551 7.30078 12.3203 7.30078 10.0371C7.30078 7.76758 6.24805 6.64648 4.23828 6.64648H2.69336V13.4551ZM10.5684 15V7.57617H12.3184V15H10.5684ZM11.457 6.52344C10.9102 6.52344 10.4453 6.09961 10.4453 5.56641C10.4453 5.04688 10.9102 4.62305 11.457 4.62305C12.0176 4.62305 12.4688 5.04688 12.4688 5.56641C12.4688 6.09961 12.0176 6.52344 11.457 6.52344ZM17.2266 17.9395C15.2578 17.9395 14.0137 17.0645 13.8906 15.6699H15.627C15.75 16.3125 16.3652 16.627 17.2539 16.627C18.293 16.627 18.9766 16.1758 18.9766 15.082V13.6602H18.8945C18.6211 14.207 18.0332 14.8906 16.748 14.8906C15.0391 14.8906 13.6855 13.6465 13.6855 11.2266C13.6855 8.7793 15.0391 7.48047 16.7617 7.48047C18.0742 7.48047 18.6211 8.25977 18.8945 8.79297H18.9766V7.57617H20.6992V15.123C20.6992 17.0234 19.2363 17.9395 17.2266 17.9395ZM17.2266 13.5234C18.3477 13.5234 18.9902 12.6758 18.9902 11.2539C18.9902 9.8457 18.3613 8.90234 17.2266 8.90234C16.0645 8.90234 15.4629 9.90039 15.4629 11.2539C15.4629 12.6211 16.0781 13.5234 17.2266 13.5234ZM22.3672 15V7.57617H24.1172V15H22.3672ZM23.2559 6.52344C22.709 6.52344 22.2441 6.09961 22.2441 5.56641C22.2441 5.04688 22.709 4.62305 23.2559 4.62305C23.8164 4.62305 24.2676 5.04688 24.2676 5.56641C24.2676 6.09961 23.8164 6.52344 23.2559 6.52344ZM29.4902 7.57617V8.91602H28.0273V12.7715C28.0273 13.4824 28.3828 13.6328 28.8203 13.6328C29.0254 13.6328 29.3672 13.6191 29.5859 13.6055V15.0273C29.3809 15.0684 29.0391 15.0957 28.6016 15.0957C27.2891 15.0957 26.2773 14.4531 26.291 13.0586V8.91602H25.2246V7.57617H26.291V5.79883H28.0273V7.57617H29.4902ZM30.4883 12.9082C30.4883 11.2402 31.8691 10.748 33.25 10.666C33.7627 10.6318 34.8291 10.5703 35.1504 10.5566V9.96875C35.1504 9.23047 34.6719 8.80664 33.8105 8.80664C33.0312 8.80664 32.5527 9.16211 32.416 9.69531H30.7344C30.8574 8.4375 31.9922 7.48047 33.8516 7.48047C35.2598 7.48047 36.8867 8.05469 36.8867 10.0371V15H35.2188V13.9746H35.1641C34.8359 14.6035 34.1387 15.1504 32.9766 15.1504C31.5547 15.1504 30.4883 14.3711 30.4883 12.9082ZM32.1699 12.8945C32.1699 13.5371 32.6895 13.8652 33.4277 13.8652C34.4805 13.8652 35.1641 13.168 35.1641 12.334V11.7188L33.5234 11.8281C32.6895 11.8965 32.1699 12.2383 32.1699 12.8945ZM40.2773 5.10156V15H38.5273V5.10156H40.2773ZM52.0215 8.4375C51.8164 7.24805 50.8594 6.56445 49.6562 6.56445C48.0293 6.56445 46.8945 7.80859 46.8945 10.0508C46.8945 12.3203 48.043 13.5371 49.6562 13.5371C50.832 13.5371 51.7891 12.8809 52.0215 11.7188H53.8125C53.5391 13.6191 51.9805 15.1367 49.6289 15.1367C47.0176 15.1367 45.1035 13.2363 45.1035 10.0508C45.1035 6.85156 47.0449 4.96484 49.6289 4.96484C51.8164 4.96484 53.5117 6.23633 53.8125 8.4375H52.0215ZM58.502 15.1504C56.3418 15.1504 54.9473 13.6191 54.9473 11.3223C54.9473 9.01172 56.3418 7.48047 58.502 7.48047C60.6758 7.48047 62.0566 9.01172 62.0566 11.3223C62.0566 13.6191 60.6758 15.1504 58.502 15.1504ZM58.5156 13.7559C59.7051 13.7559 60.293 12.6758 60.293 11.3086C60.293 9.95508 59.7051 8.86133 58.5156 8.86133C57.2988 8.86133 56.7109 9.95508 56.7109 11.3086C56.7109 12.6758 57.2988 13.7559 58.5156 13.7559ZM65.1602 10.6523V15H63.4102V7.57617H65.0781V8.83398H65.1738C65.5156 8 66.2676 7.48047 67.375 7.48047C68.9199 7.48047 69.9316 8.49219 69.918 10.2695V15H68.1816V10.543C68.1816 9.54492 67.6484 8.95703 66.7324 8.95703C65.8027 8.95703 65.1602 9.57227 65.1602 10.6523ZM77.9434 7.57617L75.291 15H73.377L70.7246 7.57617H72.584L74.293 13.0996H74.375L76.0977 7.57617H77.9434ZM82.0723 15.1504C79.8301 15.1504 78.4629 13.6602 78.4629 11.3359C78.4629 9.03906 79.8574 7.48047 81.9766 7.48047C83.7949 7.48047 85.3672 8.61523 85.3672 11.2266V11.7734H80.1855C80.2061 13.0381 80.9512 13.7832 82.0859 13.7832C82.8516 13.7832 83.3711 13.4551 83.5898 13.0176H85.2988C84.9844 14.3027 83.7949 15.1504 82.0723 15.1504ZM80.1992 10.584H83.6992C83.6855 9.57227 83.0156 8.83398 82.0039 8.83398C80.9512 8.83398 80.2539 9.63379 80.1992 10.584ZM86.7207 15V7.57617H88.416V8.80664H88.498C88.7578 7.95898 89.4824 7.4668 90.3301 7.4668C90.5215 7.4668 90.7949 7.48047 90.959 7.50781V9.12109C90.8086 9.06641 90.4395 9.01172 90.1523 9.01172C89.1816 9.01172 88.4707 9.68164 88.4707 10.625V15H86.7207ZM94.9922 17.9395C93.0234 17.9395 91.7793 17.0645 91.6562 15.6699H93.3926C93.5156 16.3125 94.1309 16.627 95.0195 16.627C96.0586 16.627 96.7422 16.1758 96.7422 15.082V13.6602H96.6602C96.3867 14.207 95.7988 14.8906 94.5137 14.8906C92.8047 14.8906 91.4512 13.6465 91.4512 11.2266C91.4512 8.7793 92.8047 7.48047 94.5273 7.48047C95.8398 7.48047 96.3867 8.25977 96.6602 8.79297H96.7422V7.57617H98.4648V15.123C98.4648 17.0234 97.002 17.9395 94.9922 17.9395ZM94.9922 13.5234C96.1133 13.5234 96.7559 12.6758 96.7559 11.2539C96.7559 9.8457 96.127 8.90234 94.9922 8.90234C93.8301 8.90234 93.2285 9.90039 93.2285 11.2539C93.2285 12.6211 93.8438 13.5234 94.9922 13.5234ZM103.428 15.1504C101.186 15.1504 99.8184 13.6602 99.8184 11.3359C99.8184 9.03906 101.213 7.48047 103.332 7.48047C105.15 7.48047 106.723 8.61523 106.723 11.2266V11.7734H101.541C101.562 13.0381 102.307 13.7832 103.441 13.7832C104.207 13.7832 104.727 13.4551 104.945 13.0176H106.654C106.34 14.3027 105.15 15.1504 103.428 15.1504ZM101.555 10.584H105.055C105.041 9.57227 104.371 8.83398 103.359 8.83398C102.307 8.83398 101.609 9.63379 101.555 10.584ZM109.826 10.6523V15H108.076V7.57617H109.744V8.83398H109.84C110.182 8 110.934 7.48047 112.041 7.48047C113.586 7.48047 114.598 8.49219 114.584 10.2695V15H112.848V10.543C112.848 9.54492 112.314 8.95703 111.398 8.95703C110.469 8.95703 109.826 9.57227 109.826 10.6523ZM119.492 15.1504C117.277 15.1504 115.938 13.5645 115.938 11.3223C115.938 9.05273 117.318 7.48047 119.492 7.48047C121.297 7.48047 122.555 8.5332 122.678 10.1328H121.01C120.873 9.42188 120.354 8.875 119.506 8.875C118.426 8.875 117.701 9.79102 117.701 11.2812C117.701 12.8125 118.412 13.7285 119.506 13.7285C120.285 13.7285 120.859 13.2773 121.01 12.4707H122.678C122.541 14.043 121.352 15.1504 119.492 15.1504ZM127.285 15.1504C125.043 15.1504 123.676 13.6602 123.676 11.3359C123.676 9.03906 125.07 7.48047 127.189 7.48047C129.008 7.48047 130.58 8.61523 130.58 11.2266V11.7734H125.398C125.419 13.0381 126.164 13.7832 127.299 13.7832C128.064 13.7832 128.584 13.4551 128.803 13.0176H130.512C130.197 14.3027 129.008 15.1504 127.285 15.1504ZM125.412 10.584H128.912C128.898 9.57227 128.229 8.83398 127.217 8.83398C126.164 8.83398 125.467 9.63379 125.412 10.584ZM135.338 15V5.10156H139.057C141.326 5.10156 142.543 6.48242 142.543 8.38281C142.543 10.2832 141.312 11.6504 139.029 11.6504H137.115V15H135.338ZM137.115 10.1875H138.783C140.123 10.1875 140.725 9.43555 140.725 8.38281C140.725 7.31641 140.123 6.5918 138.783 6.5918H137.115V10.1875ZM143.896 15V7.57617H145.592V8.80664H145.674C145.934 7.95898 146.658 7.4668 147.506 7.4668C147.697 7.4668 147.971 7.48047 148.135 7.50781V9.12109C147.984 9.06641 147.615 9.01172 147.328 9.01172C146.357 9.01172 145.646 9.68164 145.646 10.625V15H143.896ZM152.168 15.1504C150.008 15.1504 148.613 13.6191 148.613 11.3223C148.613 9.01172 150.008 7.48047 152.168 7.48047C154.342 7.48047 155.723 9.01172 155.723 11.3223C155.723 13.6191 154.342 15.1504 152.168 15.1504ZM152.182 13.7559C153.371 13.7559 153.959 12.6758 153.959 11.3086C153.959 9.95508 153.371 8.86133 152.182 8.86133C150.965 8.86133 150.377 9.95508 150.377 11.3086C150.377 12.6758 150.965 13.7559 152.182 13.7559ZM157.076 7.57617H158.826V15.4238C158.826 17.0234 157.883 17.7891 156.242 17.7891C156.133 17.7891 156.023 17.7891 155.887 17.7754V16.3535C155.982 16.3672 156.064 16.3672 156.146 16.3672C156.816 16.3672 157.076 16.0254 157.076 15.4102V7.57617ZM157.951 6.52344C157.404 6.52344 156.939 6.09961 156.939 5.56641C156.939 5.04688 157.404 4.62305 157.951 4.62305C158.512 4.62305 158.963 5.04688 158.963 5.56641C158.963 6.09961 158.512 6.52344 157.951 6.52344ZM163.789 15.1504C161.547 15.1504 160.18 13.6602 160.18 11.3359C160.18 9.03906 161.574 7.48047 163.693 7.48047C165.512 7.48047 167.084 8.61523 167.084 11.2266V11.7734H161.902C161.923 13.0381 162.668 13.7832 163.803 13.7832C164.568 13.7832 165.088 13.4551 165.307 13.0176H167.016C166.701 14.3027 165.512 15.1504 163.789 15.1504ZM161.916 10.584H165.416C165.402 9.57227 164.732 8.83398 163.721 8.83398C162.668 8.83398 161.971 9.63379 161.916 10.584ZM171.678 15.1504C169.463 15.1504 168.123 13.5645 168.123 11.3223C168.123 9.05273 169.504 7.48047 171.678 7.48047C173.482 7.48047 174.74 8.5332 174.863 10.1328H173.195C173.059 9.42188 172.539 8.875 171.691 8.875C170.611 8.875 169.887 9.79102 169.887 11.2812C169.887 12.8125 170.598 13.7285 171.691 13.7285C172.471 13.7285 173.045 13.2773 173.195 12.4707H174.863C174.727 14.043 173.537 15.1504 171.678 15.1504ZM179.881 7.57617V8.91602H178.418V12.7715C178.418 13.4824 178.773 13.6328 179.211 13.6328C179.416 13.6328 179.758 13.6191 179.977 13.6055V15.0273C179.771 15.0684 179.43 15.0957 178.992 15.0957C177.68 15.0957 176.668 14.4531 176.682 13.0586V8.91602H175.615V7.57617H176.682V5.79883H178.418V7.57617H179.881Z" fill="#C9C9C9"/>
</svg>
