<svg width="45" height="13" viewBox="0 0 45 13" fill="none" xmlns="http://www.w3.org/2000/svg">
<path d="M7.64 12.992V7.456H2.216V12.336C2.216 12.5173 2.152 12.672 2.024 12.8C1.896 12.928 1.74133 12.992 1.56 12.992H0.168V0.719999H1.56C1.74133 0.719999 1.896 0.789333 2.024 0.927999C2.152 1.056 2.216 1.21067 2.216 1.392V5.6H7.64V0.719999H9.032C9.21333 0.719999 9.368 0.789333 9.496 0.927999C9.624 1.056 9.688 1.21067 9.688 1.392V12.336C9.688 12.5173 9.624 12.672 9.496 12.8C9.368 12.928 9.21333 12.992 9.032 12.992H7.64ZM14.7069 12.992C14.2055 12.9813 13.7469 12.9013 13.3309 12.752C12.9255 12.6133 12.5735 12.4053 12.2749 12.128C11.9762 11.8613 11.7469 11.5307 11.5869 11.136C11.4269 10.7307 11.3469 10.272 11.3469 9.76V6.8C11.3469 5.744 11.6509 4.944 12.2589 4.4C12.8775 3.84533 13.6989 3.568 14.7229 3.568H16.4349C17.4802 3.568 18.2855 3.86667 18.8509 4.464C19.4162 5.05067 19.6989 5.86133 19.6989 6.896V9.664C19.6989 10.6987 19.4109 11.5093 18.8349 12.096C18.2695 12.6933 17.4695 12.992 16.4349 12.992H14.7069ZM14.4029 5.424C14.0189 5.424 13.7522 5.54667 13.6029 5.792C13.4642 6.03733 13.3949 6.33067 13.3949 6.672V9.872C13.3949 10.224 13.4642 10.5227 13.6029 10.768C13.7522 11.0133 14.0189 11.136 14.4029 11.136H16.6909C16.8615 11.136 17.0055 11.0987 17.1229 11.024C17.2509 10.9493 17.3522 10.8533 17.4269 10.736C17.5015 10.6187 17.5549 10.4853 17.5869 10.336C17.6295 10.1867 17.6509 10.0373 17.6509 9.888V6.672C17.6509 6.52267 17.6349 6.37333 17.6029 6.224C17.5709 6.07467 17.5122 5.94133 17.4269 5.824C17.3522 5.70667 17.2509 5.61067 17.1229 5.536C17.0055 5.46133 16.8615 5.424 16.6909 5.424H14.4029ZM29.092 5.424V12.448C29.092 12.5973 29.0387 12.7253 28.932 12.832C28.836 12.9387 28.7133 12.992 28.564 12.992H27.06V6.032C27.06 5.86133 26.996 5.71733 26.868 5.6C26.7507 5.48267 26.6067 5.424 26.436 5.424H23.684V12.448C23.684 12.5973 23.6307 12.7253 23.524 12.832C23.4173 12.9387 23.2893 12.992 23.14 12.992H21.636V3.408H23.684V4.08C24.0147 3.86667 24.3453 3.728 24.676 3.664C25.0067 3.6 25.3267 3.568 25.636 3.568H26.5C26.852 3.568 27.2147 3.62133 27.588 3.728C27.9613 3.824 28.2867 4.04267 28.564 4.384C28.9373 4.064 29.348 3.85067 29.796 3.744C30.244 3.62667 30.6653 3.568 31.06 3.568H31.908C32.2493 3.568 32.5747 3.616 32.884 3.712C33.1933 3.79733 33.4653 3.936 33.7 4.128C33.9453 4.30933 34.1373 4.544 34.276 4.832C34.4253 5.10933 34.5 5.44 34.5 5.824V12.448C34.5 12.5973 34.4467 12.7253 34.34 12.832C34.244 12.9387 34.1213 12.992 33.972 12.992H32.452V6.032C32.452 5.86133 32.3933 5.71733 32.276 5.6C32.1587 5.48267 32.0147 5.424 31.844 5.424H29.092ZM39.8334 12.992C39.3214 12.9813 38.852 12.912 38.4254 12.784C38.0094 12.656 37.652 12.4587 37.3534 12.192C37.0547 11.9253 36.82 11.5893 36.6494 11.184C36.4894 10.7787 36.4094 10.2987 36.4094 9.744V7.008C36.4094 5.78133 36.7347 4.90133 37.3854 4.368C38.036 3.83467 38.9747 3.568 40.2014 3.568H40.9854C41.5187 3.568 42.004 3.62667 42.4414 3.744C42.8787 3.85067 43.252 4.032 43.5614 4.288C43.8814 4.544 44.1267 4.88 44.2974 5.296C44.4787 5.70133 44.5694 6.208 44.5694 6.816V8.464C44.5694 8.67733 44.4894 8.864 44.3294 9.024C44.18 9.184 43.9934 9.264 43.7694 9.264H38.4574V9.856C38.4574 10.3467 38.564 10.6827 38.7774 10.864C39.0014 11.0453 39.3534 11.136 39.8334 11.136H44.3134V12.352C44.3134 12.5333 44.2494 12.6827 44.1214 12.8C44.004 12.928 43.8547 12.992 43.6734 12.992H39.8334ZM38.4574 7.408H42.5214V6.336C42.5214 6.08 42.4307 5.86667 42.2494 5.696C42.068 5.51467 41.8547 5.424 41.6094 5.424H39.3694C39.1134 5.424 38.8947 5.51467 38.7134 5.696C38.5427 5.86667 38.4574 6.08 38.4574 6.336V7.408Z" fill="white"/>
</svg>
