<svg width="132" height="20" viewBox="0 0 132 20" fill="none" xmlns="http://www.w3.org/2000/svg">
<path d="M2.69336 5.10156V15H0.916016V5.10156H2.69336ZM6.20703 10.6523V15H4.45703V7.57617H6.125V8.83398H6.2207C6.5625 8 7.31445 7.48047 8.42188 7.48047C9.9668 7.48047 10.9785 8.49219 10.9648 10.2695V15H9.22852V10.543C9.22852 9.54492 8.69531 8.95703 7.7793 8.95703C6.84961 8.95703 6.20703 9.57227 6.20703 10.6523ZM16.3379 7.57617V8.91602H14.875V12.7715C14.875 13.4824 15.2305 13.6328 15.668 13.6328C15.873 13.6328 16.2148 13.6191 16.4336 13.6055V15.0273C16.2285 15.0684 15.8867 15.0957 15.4492 15.0957C14.1367 15.0957 13.125 14.4531 13.1387 13.0586V8.91602H12.0723V7.57617H13.1387V5.79883H14.875V7.57617H16.3379ZM20.8906 15.1504C18.6484 15.1504 17.2812 13.6602 17.2812 11.3359C17.2812 9.03906 18.6758 7.48047 20.7949 7.48047C22.6133 7.48047 24.1855 8.61523 24.1855 11.2266V11.7734H19.0039C19.0244 13.0381 19.7695 13.7832 20.9043 13.7832C21.6699 13.7832 22.1895 13.4551 22.4082 13.0176H24.1172C23.8027 14.3027 22.6133 15.1504 20.8906 15.1504ZM19.0176 10.584H22.5176C22.5039 9.57227 21.834 8.83398 20.8223 8.83398C19.7695 8.83398 19.0723 9.63379 19.0176 10.584ZM25.5391 15V7.57617H27.2344V8.80664H27.3164C27.5762 7.95898 28.3008 7.4668 29.1484 7.4668C29.3398 7.4668 29.6133 7.48047 29.7773 7.50781V9.12109C29.627 9.06641 29.2578 9.01172 28.9707 9.01172C28 9.01172 27.2891 9.68164 27.2891 10.625V15H25.5391ZM30.3379 12.9082C30.3379 11.2402 31.7188 10.748 33.0996 10.666C33.6123 10.6318 34.6787 10.5703 35 10.5566V9.96875C35 9.23047 34.5215 8.80664 33.6602 8.80664C32.8809 8.80664 32.4023 9.16211 32.2656 9.69531H30.584C30.707 8.4375 31.8418 7.48047 33.7012 7.48047C35.1094 7.48047 36.7363 8.05469 36.7363 10.0371V15H35.0684V13.9746H35.0137C34.6855 14.6035 33.9883 15.1504 32.8262 15.1504C31.4043 15.1504 30.3379 14.3711 30.3379 12.9082ZM32.0195 12.8945C32.0195 13.5371 32.5391 13.8652 33.2773 13.8652C34.3301 13.8652 35.0137 13.168 35.0137 12.334V11.7188L33.373 11.8281C32.5391 11.8965 32.0195 12.2383 32.0195 12.8945ZM41.6172 15.1504C39.4023 15.1504 38.0625 13.5645 38.0625 11.3223C38.0625 9.05273 39.4434 7.48047 41.6172 7.48047C43.4219 7.48047 44.6797 8.5332 44.8027 10.1328H43.1348C42.998 9.42188 42.4785 8.875 41.6309 8.875C40.5508 8.875 39.8262 9.79102 39.8262 11.2812C39.8262 12.8125 40.5371 13.7285 41.6309 13.7285C42.4102 13.7285 42.9844 13.2773 43.1348 12.4707H44.8027C44.666 14.043 43.4766 15.1504 41.6172 15.1504ZM49.8203 7.57617V8.91602H48.3574V12.7715C48.3574 13.4824 48.7129 13.6328 49.1504 13.6328C49.3555 13.6328 49.6973 13.6191 49.916 13.6055V15.0273C49.7109 15.0684 49.3691 15.0957 48.9316 15.0957C47.6191 15.0957 46.6074 14.4531 46.6211 13.0586V8.91602H45.5547V7.57617H46.6211V5.79883H48.3574V7.57617H49.8203ZM51.1602 15V7.57617H52.9102V15H51.1602ZM52.0488 6.52344C51.502 6.52344 51.0371 6.09961 51.0371 5.56641C51.0371 5.04688 51.502 4.62305 52.0488 4.62305C52.6094 4.62305 53.0605 5.04688 53.0605 5.56641C53.0605 6.09961 52.6094 6.52344 52.0488 6.52344ZM57.8184 15.1504C55.6582 15.1504 54.2637 13.6191 54.2637 11.3223C54.2637 9.01172 55.6582 7.48047 57.8184 7.48047C59.9922 7.48047 61.373 9.01172 61.373 11.3223C61.373 13.6191 59.9922 15.1504 57.8184 15.1504ZM57.832 13.7559C59.0215 13.7559 59.6094 12.6758 59.6094 11.3086C59.6094 9.95508 59.0215 8.86133 57.832 8.86133C56.6152 8.86133 56.0273 9.95508 56.0273 11.3086C56.0273 12.6758 56.6152 13.7559 57.832 13.7559ZM64.4766 10.6523V15H62.7266V7.57617H64.3945V8.83398H64.4902C64.832 8 65.584 7.48047 66.6914 7.48047C68.2363 7.48047 69.248 8.49219 69.2344 10.2695V15H67.498V10.543C67.498 9.54492 66.9648 8.95703 66.0488 8.95703C65.1191 8.95703 64.4766 9.57227 64.4766 10.6523ZM74.3066 15V5.10156H78.0938C80.2402 5.10156 81.3066 6.19531 81.3066 7.67188C81.3066 8.875 80.541 9.54492 79.5703 9.77734V9.87305C80.623 9.92773 81.6895 10.8027 81.6895 12.3066C81.6895 13.8516 80.582 15 78.3125 15H74.3066ZM78.0391 13.5098C79.3379 13.5098 79.8848 12.9492 79.8848 12.1699C79.8848 11.2812 79.1875 10.5977 78.0801 10.5977H76.084V13.5098H78.0391ZM77.875 9.3125C78.8184 9.3125 79.5293 8.76562 79.5293 7.89062C79.5293 7.125 78.9824 6.57812 77.916 6.57812H76.084V9.3125H77.875ZM87.8008 11.8828V7.57617H89.5371V15H87.8555V13.6875H87.7734C87.4316 14.5078 86.6523 15.0957 85.5449 15.0957C84.082 15.0957 83.0703 14.084 83.0566 12.3066V7.57617H84.8066V12.0332C84.8066 12.9766 85.3672 13.5781 86.2148 13.5781C86.9805 13.5781 87.8008 13.0176 87.8008 11.8828ZM95.416 9.69531C95.3066 9.13477 94.8418 8.7793 94.1035 8.7793C93.3516 8.7793 92.8047 9.14844 92.8184 9.6543C92.8047 10.0371 93.1191 10.3242 93.8711 10.502L95.1289 10.7617C96.5371 11.0762 97.207 11.7188 97.2207 12.7852C97.207 14.1797 95.9902 15.1504 94.0488 15.1504C92.1621 15.1504 91.041 14.3027 90.8633 12.8809H92.6406C92.75 13.5098 93.2422 13.8242 94.0488 13.8242C94.8828 13.8242 95.4434 13.4824 95.4434 12.9355C95.4434 12.5117 95.1016 12.2383 94.3633 12.0742L93.1738 11.8145C91.793 11.541 91.082 10.8164 91.082 9.75C91.082 8.38281 92.2578 7.48047 94.0762 7.48047C95.8535 7.48047 96.9473 8.3418 97.0703 9.69531H95.416ZM98.5469 15V7.57617H100.297V15H98.5469ZM99.4355 6.52344C98.8887 6.52344 98.4238 6.09961 98.4238 5.56641C98.4238 5.04688 98.8887 4.62305 99.4355 4.62305C99.9961 4.62305 100.447 5.04688 100.447 5.56641C100.447 6.09961 99.9961 6.52344 99.4355 6.52344ZM103.715 10.6523V15H101.965V7.57617H103.633V8.83398H103.729C104.07 8 104.822 7.48047 105.93 7.48047C107.475 7.48047 108.486 8.49219 108.473 10.2695V15H106.736V10.543C106.736 9.54492 106.203 8.95703 105.287 8.95703C104.357 8.95703 103.715 9.57227 103.715 10.6523ZM113.436 15.1504C111.193 15.1504 109.826 13.6602 109.826 11.3359C109.826 9.03906 111.221 7.48047 113.34 7.48047C115.158 7.48047 116.73 8.61523 116.73 11.2266V11.7734H111.549C111.569 13.0381 112.314 13.7832 113.449 13.7832C114.215 13.7832 114.734 13.4551 114.953 13.0176H116.662C116.348 14.3027 115.158 15.1504 113.436 15.1504ZM111.562 10.584H115.062C115.049 9.57227 114.379 8.83398 113.367 8.83398C112.314 8.83398 111.617 9.63379 111.562 10.584ZM122.295 9.69531C122.186 9.13477 121.721 8.7793 120.982 8.7793C120.23 8.7793 119.684 9.14844 119.697 9.6543C119.684 10.0371 119.998 10.3242 120.75 10.502L122.008 10.7617C123.416 11.0762 124.086 11.7188 124.1 12.7852C124.086 14.1797 122.869 15.1504 120.928 15.1504C119.041 15.1504 117.92 14.3027 117.742 12.8809H119.52C119.629 13.5098 120.121 13.8242 120.928 13.8242C121.762 13.8242 122.322 13.4824 122.322 12.9355C122.322 12.5117 121.98 12.2383 121.242 12.0742L120.053 11.8145C118.672 11.541 117.961 10.8164 117.961 9.75C117.961 8.38281 119.137 7.48047 120.955 7.48047C122.732 7.48047 123.826 8.3418 123.949 9.69531H122.295ZM129.637 9.69531C129.527 9.13477 129.062 8.7793 128.324 8.7793C127.572 8.7793 127.025 9.14844 127.039 9.6543C127.025 10.0371 127.34 10.3242 128.092 10.502L129.35 10.7617C130.758 11.0762 131.428 11.7188 131.441 12.7852C131.428 14.1797 130.211 15.1504 128.27 15.1504C126.383 15.1504 125.262 14.3027 125.084 12.8809H126.861C126.971 13.5098 127.463 13.8242 128.27 13.8242C129.104 13.8242 129.664 13.4824 129.664 12.9355C129.664 12.5117 129.322 12.2383 128.584 12.0742L127.395 11.8145C126.014 11.541 125.303 10.8164 125.303 9.75C125.303 8.38281 126.479 7.48047 128.297 7.48047C130.074 7.48047 131.168 8.3418 131.291 9.69531H129.637Z" fill="#C9C9C9"/>
</svg>
