<svg width="58" height="18" viewBox="0 0 58 18" fill="none" xmlns="http://www.w3.org/2000/svg">
<path d="M0.168 13.992V1.72H6.072C6.53067 1.72 6.95733 1.77333 7.352 1.88C7.75733 1.976 8.104 2.136 8.392 2.36C8.69067 2.57333 8.92 2.86133 9.08 3.224C9.25067 3.576 9.336 4.008 9.336 4.52V6.712C9.336 7.24533 9.25067 7.69333 9.08 8.056C8.90933 8.41867 8.66933 8.70667 8.36 8.92C8.06133 9.13333 7.704 9.288 7.288 9.384C6.872 9.46933 6.424 9.512 5.944 9.512H2.216V13.336C2.216 13.5173 2.152 13.6667 2.024 13.784C1.896 13.912 1.74133 13.9813 1.56 13.992H0.168ZM5.88 7.656C6.14667 7.656 6.36533 7.63467 6.536 7.592C6.71733 7.54933 6.856 7.48 6.952 7.384C7.05867 7.27733 7.128 7.144 7.16 6.984C7.20267 6.81333 7.224 6.60533 7.224 6.36V4.76C7.224 4.26933 7.10133 3.94933 6.856 3.8C6.61067 3.65067 6.24267 3.576 5.752 3.576H2.216V7.656H5.88ZM13.133 6.424V13.288C13.133 13.4907 13.0583 13.656 12.909 13.784C12.7703 13.9227 12.5997 13.992 12.397 13.992H11.085V4.424H13.149V5.096C13.4797 4.88267 13.7997 4.744 14.109 4.68C14.429 4.60533 14.7437 4.568 15.053 4.568H17.005V5.88C17.005 6.02933 16.9517 6.15733 16.845 6.264C16.7383 6.36 16.6157 6.41333 16.477 6.424H13.133ZM21.3163 13.992C20.8149 13.9813 20.3563 13.9013 19.9403 13.752C19.5349 13.6133 19.1829 13.4053 18.8843 13.128C18.5856 12.8613 18.3563 12.5307 18.1963 12.136C18.0363 11.7307 17.9563 11.272 17.9563 10.76V7.8C17.9563 6.744 18.2603 5.944 18.8683 5.4C19.4869 4.84533 20.3083 4.568 21.3323 4.568H23.0443C24.0896 4.568 24.8949 4.86667 25.4603 5.464C26.0256 6.05067 26.3083 6.86133 26.3083 7.896V10.664C26.3083 11.6987 26.0203 12.5093 25.4443 13.096C24.8789 13.6933 24.0789 13.992 23.0443 13.992H21.3163ZM21.0123 6.424C20.6283 6.424 20.3616 6.54667 20.2123 6.792C20.0736 7.03733 20.0043 7.33067 20.0043 7.672V10.872C20.0043 11.224 20.0736 11.5227 20.2123 11.768C20.3616 12.0133 20.6283 12.136 21.0123 12.136H23.3003C23.4709 12.136 23.6149 12.0987 23.7323 12.024C23.8603 11.9493 23.9616 11.8533 24.0363 11.736C24.1109 11.6187 24.1643 11.4853 24.1963 11.336C24.2389 11.1867 24.2603 11.0373 24.2603 10.888V7.672C24.2603 7.52267 24.2443 7.37333 24.2123 7.224C24.1803 7.07467 24.1216 6.94133 24.0363 6.824C23.9616 6.70667 23.8603 6.61067 23.7323 6.536C23.6149 6.46133 23.4709 6.424 23.3003 6.424H21.0123ZM26.8891 17.752C26.5478 17.7307 26.2331 17.6773 25.9451 17.592L25.6731 17.512V15.944H27.0971C27.3745 15.944 27.5931 15.9227 27.7531 15.88C27.9238 15.848 28.0518 15.7787 28.1371 15.672C28.2225 15.5653 28.2758 15.4267 28.2971 15.256C28.3291 15.0853 28.3451 14.8613 28.3451 14.584V4.408H30.3931V14.648C30.3931 15.1173 30.3398 15.5387 30.2331 15.912C30.1265 16.296 29.9611 16.6267 29.7371 16.904C29.5131 17.1813 29.2251 17.3947 28.8731 17.544C28.5211 17.6933 28.1051 17.768 27.6251 17.768L26.8891 17.752ZM30.5051 1.928C30.5051 2.23733 30.3931 2.504 30.1691 2.728C29.9451 2.952 29.6731 3.064 29.3531 3.064C29.0438 3.064 28.7771 2.952 28.5531 2.728C28.3291 2.504 28.2171 2.23733 28.2171 1.928C28.2171 1.608 28.3291 1.336 28.5531 1.112C28.7771 0.887999 29.0438 0.775999 29.3531 0.775999C29.6731 0.775999 29.9451 0.887999 30.1691 1.112C30.3931 1.336 30.5051 1.608 30.5051 1.928ZM35.7552 13.992C35.2433 13.9813 34.7739 13.912 34.3473 13.784C33.9313 13.656 33.5739 13.4587 33.2753 13.192C32.9766 12.9253 32.7419 12.5893 32.5713 12.184C32.4113 11.7787 32.3313 11.2987 32.3313 10.744V8.008C32.3313 6.78133 32.6566 5.90133 33.3073 5.368C33.9579 4.83467 34.8966 4.568 36.1233 4.568H36.9073C37.4406 4.568 37.9259 4.62667 38.3633 4.744C38.8006 4.85067 39.1739 5.032 39.4833 5.288C39.8033 5.544 40.0486 5.88 40.2193 6.296C40.4006 6.70133 40.4913 7.208 40.4913 7.816V9.464C40.4913 9.67733 40.4113 9.864 40.2513 10.024C40.1019 10.184 39.9153 10.264 39.6913 10.264H34.3793V10.856C34.3793 11.3467 34.4859 11.6827 34.6993 11.864C34.9233 12.0453 35.2753 12.136 35.7552 12.136H40.2353V13.352C40.2353 13.5333 40.1713 13.6827 40.0433 13.8C39.9259 13.928 39.7766 13.992 39.5953 13.992H35.7552ZM34.3793 8.408H38.4433V7.336C38.4433 7.08 38.3526 6.86667 38.1713 6.696C37.9899 6.51467 37.7766 6.424 37.5313 6.424H35.2913C35.0353 6.424 34.8166 6.51467 34.6353 6.696C34.4646 6.86667 34.3793 7.08 34.3793 7.336V8.408ZM46.1483 13.992C45.4229 13.9813 44.8043 13.9013 44.2923 13.752C43.7803 13.6027 43.3589 13.3627 43.0283 13.032C42.7083 12.7013 42.4736 12.28 42.3243 11.768C42.1749 11.2453 42.1003 10.616 42.1003 9.88V8.68C42.1003 7.944 42.1749 7.32 42.3243 6.808C42.4736 6.28533 42.7083 5.85867 43.0283 5.528C43.3483 5.19733 43.7643 4.95733 44.2763 4.808C44.7883 4.648 45.4123 4.568 46.1483 4.568H49.6363V5.768C49.6363 5.94933 49.5723 6.104 49.4443 6.232C49.3163 6.36 49.1616 6.424 48.9803 6.424H45.9883C45.6256 6.424 45.3216 6.47733 45.0763 6.584C44.8416 6.68 44.6549 6.824 44.5163 7.016C44.3776 7.208 44.2816 7.44267 44.2283 7.72C44.1749 7.98667 44.1483 8.296 44.1483 8.648V9.704C44.1483 10.0453 44.1643 10.3653 44.1963 10.664C44.2283 10.952 44.3083 11.208 44.4363 11.432C44.5643 11.6453 44.7509 11.816 44.9963 11.944C45.2416 12.072 45.5723 12.136 45.9883 12.136H49.6363V13.336C49.6363 13.5173 49.5723 13.6667 49.4443 13.784C49.3163 13.912 49.1616 13.9813 48.9803 13.992H46.1483ZM55.4455 13.992C55.0295 13.992 54.6455 13.9707 54.2935 13.928C53.9522 13.896 53.6588 13.8053 53.4135 13.656C53.1682 13.5067 52.9762 13.288 52.8375 13C52.7095 12.7013 52.6455 12.2907 52.6455 11.768V6.424H51.6375C51.4562 6.424 51.2962 6.36 51.1575 6.232C51.0295 6.09333 50.9655 5.93333 50.9655 5.752V4.568H52.6455V1.72H54.0535C54.2348 1.72 54.3842 1.78933 54.5015 1.928C54.6295 2.056 54.6935 2.21067 54.6935 2.392V4.568H57.7815V5.752C57.7815 5.93333 57.7122 6.09333 57.5735 6.232C57.4455 6.36 57.2908 6.424 57.1095 6.424H54.6935V11.512C54.6935 11.704 54.7148 11.8587 54.7575 11.976C54.8002 12.0827 54.9335 12.136 55.1575 12.136H57.7815V13.336C57.7815 13.5173 57.7122 13.672 57.5735 13.8C57.4455 13.928 57.2908 13.992 57.1095 13.992H55.4455Z" fill="white"/>
</svg>
