<svg width="74" height="14" viewBox="0 0 74 14" fill="none" xmlns="http://www.w3.org/2000/svg">
<path d="M0.704 12.136H6.976C7.232 12.136 7.42933 12.0827 7.568 11.976C7.71733 11.8693 7.792 11.6773 7.792 11.4V10.056C7.792 9.66133 7.696 9.4 7.504 9.272C7.32267 9.144 7.04 9.05333 6.656 9L3.616 8.6C3.22133 8.54667 2.85333 8.472 2.512 8.376C2.17067 8.26933 1.872 8.12 1.616 7.928C1.37067 7.736 1.17333 7.49067 1.024 7.192C0.885333 6.88267 0.816 6.49867 0.816 6.04V4.584C0.826667 3.592 1.10933 2.872 1.664 2.424C2.22933 1.96533 2.992 1.736 3.952 1.736H9.312V2.936C9.312 3.11733 9.248 3.272 9.12 3.4C8.992 3.528 8.83733 3.592 8.656 3.592H3.808C3.488 3.592 3.248 3.656 3.088 3.784C2.93867 3.90133 2.864 4.13067 2.864 4.472V5.848C2.864 5.98667 2.90133 6.104 2.976 6.2C3.06133 6.28533 3.16267 6.35467 3.28 6.408C3.39733 6.46133 3.53067 6.504 3.68 6.536C3.82933 6.568 3.968 6.58933 4.096 6.6L7.024 6.984C7.44 7.03733 7.81867 7.12267 8.16 7.24C8.50133 7.35733 8.79467 7.52267 9.04 7.736C9.296 7.93867 9.49333 8.2 9.632 8.52C9.77067 8.82933 9.84 9.21333 9.84 9.672V11.352C9.81867 12.28 9.57867 12.952 9.12 13.368C8.66133 13.784 7.99467 13.992 7.12 13.992H1.36C1.17867 13.992 1.024 13.928 0.896 13.8C0.768 13.672 0.704 13.5173 0.704 13.336V12.136ZM15.1643 13.992C14.7483 13.992 14.3643 13.9707 14.0123 13.928C13.6709 13.896 13.3776 13.8053 13.1323 13.656C12.8869 13.5067 12.6949 13.288 12.5563 13C12.4283 12.7013 12.3643 12.2907 12.3643 11.768V6.424H11.3563C11.1749 6.424 11.0149 6.36 10.8763 6.232C10.7483 6.09333 10.6842 5.93333 10.6842 5.752V4.568H12.3643V1.72H13.7723C13.9536 1.72 14.1029 1.78933 14.2203 1.928C14.3483 2.056 14.4123 2.21067 14.4123 2.392V4.568H17.5003V5.752C17.5003 5.93333 17.4309 6.09333 17.2923 6.232C17.1643 6.36 17.0096 6.424 16.8283 6.424H14.4123V11.512C14.4123 11.704 14.4336 11.8587 14.4763 11.976C14.5189 12.0827 14.6523 12.136 14.8763 12.136H17.5003V13.336C17.5003 13.5173 17.4309 13.672 17.2923 13.8C17.1643 13.928 17.0096 13.992 16.8283 13.992H15.1643ZM25.0568 11.976V4.408H26.5608C26.7101 4.408 26.8381 4.46133 26.9448 4.568C27.0514 4.664 27.1048 4.78667 27.1048 4.936V13.448C27.1048 13.5973 27.0514 13.7253 26.9448 13.832C26.8381 13.9387 26.7101 13.992 26.5608 13.992H25.0568V13.32C24.7368 13.5227 24.4061 13.656 24.0648 13.72C23.7234 13.7947 23.3981 13.832 23.0888 13.832H21.7288C20.9608 13.832 20.3368 13.6293 19.8568 13.224C19.3874 12.8293 19.1474 12.248 19.1368 11.48L19.1208 4.408H20.6408C20.7901 4.408 20.9128 4.46133 21.0088 4.568C21.1154 4.664 21.1688 4.78667 21.1688 4.936V11.8C21.1688 11.9173 21.2274 11.976 21.3448 11.976H25.0568ZM37.1468 13.992H35.2908L35.2268 13.464C34.8748 13.6667 34.5121 13.8053 34.1388 13.88C33.7654 13.9547 33.4188 13.992 33.0988 13.992H31.6908C30.8908 13.992 30.2774 13.784 29.8508 13.368C29.4241 12.952 29.2001 12.36 29.1788 11.592V7.416C29.1788 6.52 29.4401 5.82133 29.9628 5.32C30.4961 4.81867 31.2001 4.568 32.0748 4.568H35.0988V0.808H36.4427C36.6348 0.808 36.8001 0.877333 36.9388 1.016C37.0774 1.15467 37.1468 1.32 37.1468 1.512V13.992ZM35.0988 6.424H31.8988C31.6108 6.424 31.4241 6.51467 31.3388 6.696C31.2641 6.86667 31.2268 7.07467 31.2268 7.32V11.528C31.2268 11.6773 31.2641 11.816 31.3388 11.944C31.4134 12.072 31.5414 12.136 31.7228 12.136H35.0988V6.424ZM42.3177 13.992C41.8058 13.9813 41.3364 13.912 40.9098 13.784C40.4938 13.656 40.1364 13.4587 39.8378 13.192C39.5391 12.9253 39.3044 12.5893 39.1338 12.184C38.9738 11.7787 38.8938 11.2987 38.8938 10.744V8.008C38.8938 6.78133 39.2191 5.90133 39.8698 5.368C40.5204 4.83467 41.4591 4.568 42.6858 4.568H43.4698C44.0031 4.568 44.4884 4.62667 44.9258 4.744C45.3631 4.85067 45.7364 5.032 46.0458 5.288C46.3658 5.544 46.6111 5.88 46.7818 6.296C46.9631 6.70133 47.0538 7.208 47.0538 7.816V9.464C47.0538 9.67733 46.9738 9.864 46.8138 10.024C46.6644 10.184 46.4778 10.264 46.2538 10.264H40.9418V10.856C40.9418 11.3467 41.0484 11.6827 41.2618 11.864C41.4858 12.0453 41.8378 12.136 42.3177 12.136H46.7978V13.352C46.7978 13.5333 46.7338 13.6827 46.6058 13.8C46.4884 13.928 46.3391 13.992 46.1578 13.992H42.3177ZM40.9418 8.408H45.0058V7.336C45.0058 7.08 44.9151 6.86667 44.7338 6.696C44.5524 6.51467 44.3391 6.424 44.0938 6.424H41.8538C41.5978 6.424 41.3791 6.51467 41.1978 6.696C41.0271 6.86667 40.9418 7.08 40.9418 7.336V8.408ZM50.883 6.424V13.448C50.883 13.5973 50.8297 13.7253 50.723 13.832C50.6163 13.9387 50.4883 13.992 50.339 13.992H48.835V4.408H50.883V5.08C51.2243 4.86667 51.5603 4.728 51.891 4.664C52.2217 4.6 52.5417 4.568 52.851 4.568H54.211C54.979 4.568 55.603 4.76533 56.083 5.16C56.563 5.55467 56.803 6.14133 56.803 6.92V13.448C56.803 13.5973 56.7497 13.7253 56.643 13.832C56.547 13.9387 56.4243 13.992 56.275 13.992H54.755V7.048C54.755 6.86667 54.6963 6.71733 54.579 6.6C54.4617 6.48267 54.3123 6.424 54.131 6.424H50.883ZM62.7736 13.992C62.3576 13.992 61.9736 13.9707 61.6216 13.928C61.2803 13.896 60.987 13.8053 60.7416 13.656C60.4963 13.5067 60.3043 13.288 60.1656 13C60.0376 12.7013 59.9736 12.2907 59.9736 11.768V6.424H58.9656C58.7843 6.424 58.6243 6.36 58.4856 6.232C58.3576 6.09333 58.2936 5.93333 58.2936 5.752V4.568H59.9736V1.72H61.3816C61.563 1.72 61.7123 1.78933 61.8296 1.928C61.9576 2.056 62.0216 2.21067 62.0216 2.392V4.568H65.1096V5.752C65.1096 5.93333 65.0403 6.09333 64.9016 6.232C64.7736 6.36 64.619 6.424 64.4376 6.424H62.0216V11.512C62.0216 11.704 62.043 11.8587 62.0856 11.976C62.1283 12.0827 62.2616 12.136 62.4856 12.136H65.1096V13.336C65.1096 13.5173 65.0403 13.672 64.9016 13.8C64.7736 13.928 64.619 13.992 64.4376 13.992H62.7736ZM66.3141 12.136H70.8421C71.2368 12.1147 71.4341 11.9227 71.4341 11.56V10.888C71.4341 10.5893 71.3541 10.3973 71.1941 10.312C71.0448 10.216 70.8315 10.1467 70.5541 10.104L68.6021 9.784C68.2928 9.74133 68.0048 9.67733 67.7381 9.592C67.4715 9.50667 67.2368 9.38933 67.0341 9.24C66.8421 9.08 66.6875 8.888 66.5701 8.664C66.4635 8.42933 66.4101 8.136 66.4101 7.784V6.664C66.4101 5.896 66.6235 5.33067 67.0501 4.968C67.4875 4.59467 68.0901 4.408 68.8581 4.408H73.0501V5.72C73.0501 5.86933 72.9968 5.99733 72.8901 6.104C72.7941 6.21067 72.6715 6.264 72.5221 6.264H69.1781C68.9328 6.264 68.7461 6.312 68.6181 6.408C68.5008 6.504 68.4421 6.67467 68.4421 6.92V7.624C68.4528 7.77333 68.5168 7.89067 68.6341 7.976C68.7515 8.06133 68.8795 8.11467 69.0181 8.136L71.2581 8.504C71.5781 8.55733 71.8715 8.632 72.1381 8.728C72.4048 8.81333 72.6341 8.936 72.8261 9.096C73.0288 9.256 73.1835 9.45867 73.2901 9.704C73.4075 9.94933 73.4661 10.248 73.4661 10.6V11.928C73.4555 12.6213 73.2635 13.1387 72.8901 13.48C72.5275 13.8213 72.0048 13.992 71.3221 13.992H66.8421C66.7035 13.992 66.5808 13.9387 66.4741 13.832C66.3781 13.7253 66.3248 13.6027 66.3141 13.464V12.136Z" fill="white"/>
</svg>
