<svg width="90" height="20" viewBox="0 0 90 20" fill="none" xmlns="http://www.w3.org/2000/svg">
<path d="M2.22852 5.10156L4.79883 12.9082H4.9082L7.49219 5.10156H9.44727L5.94727 15H3.75977L0.273438 5.10156H2.22852ZM10.541 15V7.57617H12.291V15H10.541ZM11.4297 6.52344C10.8828 6.52344 10.418 6.09961 10.418 5.56641C10.418 5.04688 10.8828 4.62305 11.4297 4.62305C11.9902 4.62305 12.4414 5.04688 12.4414 5.56641C12.4414 6.09961 11.9902 6.52344 11.4297 6.52344ZM18.1699 9.69531C18.0605 9.13477 17.5957 8.7793 16.8574 8.7793C16.1055 8.7793 15.5586 9.14844 15.5723 9.6543C15.5586 10.0371 15.873 10.3242 16.625 10.502L17.8828 10.7617C19.291 11.0762 19.9609 11.7188 19.9746 12.7852C19.9609 14.1797 18.7441 15.1504 16.8027 15.1504C14.916 15.1504 13.7949 14.3027 13.6172 12.8809H15.3945C15.5039 13.5098 15.9961 13.8242 16.8027 13.8242C17.6367 13.8242 18.1973 13.4824 18.1973 12.9355C18.1973 12.5117 17.8555 12.2383 17.1172 12.0742L15.9277 11.8145C14.5469 11.541 13.8359 10.8164 13.8359 9.75C13.8359 8.38281 15.0117 7.48047 16.8301 7.48047C18.6074 7.48047 19.7012 8.3418 19.8242 9.69531H18.1699ZM26.0449 11.8828V7.57617H27.7812V15H26.0996V13.6875H26.0176C25.6758 14.5078 24.8965 15.0957 23.7891 15.0957C22.3262 15.0957 21.3145 14.084 21.3008 12.3066V7.57617H23.0508V12.0332C23.0508 12.9766 23.6113 13.5781 24.459 13.5781C25.2246 13.5781 26.0449 13.0176 26.0449 11.8828ZM29.1074 12.9082C29.1074 11.2402 30.4883 10.748 31.8691 10.666C32.3818 10.6318 33.4482 10.5703 33.7695 10.5566V9.96875C33.7695 9.23047 33.291 8.80664 32.4297 8.80664C31.6504 8.80664 31.1719 9.16211 31.0352 9.69531H29.3535C29.4766 8.4375 30.6113 7.48047 32.4707 7.48047C33.8789 7.48047 35.5059 8.05469 35.5059 10.0371V15H33.8379V13.9746H33.7832C33.4551 14.6035 32.7578 15.1504 31.5957 15.1504C30.1738 15.1504 29.1074 14.3711 29.1074 12.9082ZM30.7891 12.8945C30.7891 13.5371 31.3086 13.8652 32.0469 13.8652C33.0996 13.8652 33.7832 13.168 33.7832 12.334V11.7188L32.1426 11.8281C31.3086 11.8965 30.7891 12.2383 30.7891 12.8945ZM38.8965 5.10156V15H37.1465V5.10156H38.8965ZM43.9688 15V5.10156H47.6875C49.957 5.10156 51.1738 6.48242 51.1738 8.38281C51.1738 10.2832 49.9434 11.6504 47.6602 11.6504H45.7461V15H43.9688ZM45.7461 10.1875H47.4141C48.7539 10.1875 49.3555 9.43555 49.3555 8.38281C49.3555 7.31641 48.7539 6.5918 47.4141 6.5918H45.7461V10.1875ZM52.5273 15V7.57617H54.2227V8.80664H54.3047C54.5645 7.95898 55.2891 7.4668 56.1367 7.4668C56.3281 7.4668 56.6016 7.48047 56.7656 7.50781V9.12109C56.6152 9.06641 56.2461 9.01172 55.959 9.01172C54.9883 9.01172 54.2773 9.68164 54.2773 10.625V15H52.5273ZM60.7988 15.1504C58.6387 15.1504 57.2441 13.6191 57.2441 11.3223C57.2441 9.01172 58.6387 7.48047 60.7988 7.48047C62.9727 7.48047 64.3535 9.01172 64.3535 11.3223C64.3535 13.6191 62.9727 15.1504 60.7988 15.1504ZM60.8125 13.7559C62.002 13.7559 62.5898 12.6758 62.5898 11.3086C62.5898 9.95508 62.002 8.86133 60.8125 8.86133C59.5957 8.86133 59.0078 9.95508 59.0078 11.3086C59.0078 12.6758 59.5957 13.7559 60.8125 13.7559ZM65.707 7.57617H67.457V15.4238C67.457 17.0234 66.5137 17.7891 64.873 17.7891C64.7637 17.7891 64.6543 17.7891 64.5176 17.7754V16.3535C64.6133 16.3672 64.6953 16.3672 64.7773 16.3672C65.4473 16.3672 65.707 16.0254 65.707 15.4102V7.57617ZM66.582 6.52344C66.0352 6.52344 65.5703 6.09961 65.5703 5.56641C65.5703 5.04688 66.0352 4.62305 66.582 4.62305C67.1426 4.62305 67.5938 5.04688 67.5938 5.56641C67.5938 6.09961 67.1426 6.52344 66.582 6.52344ZM72.4199 15.1504C70.1777 15.1504 68.8105 13.6602 68.8105 11.3359C68.8105 9.03906 70.2051 7.48047 72.3242 7.48047C74.1426 7.48047 75.7148 8.61523 75.7148 11.2266V11.7734H70.5332C70.5537 13.0381 71.2988 13.7832 72.4336 13.7832C73.1992 13.7832 73.7188 13.4551 73.9375 13.0176H75.6465C75.332 14.3027 74.1426 15.1504 72.4199 15.1504ZM70.5469 10.584H74.0469C74.0332 9.57227 73.3633 8.83398 72.3516 8.83398C71.2988 8.83398 70.6016 9.63379 70.5469 10.584ZM80.3086 15.1504C78.0938 15.1504 76.7539 13.5645 76.7539 11.3223C76.7539 9.05273 78.1348 7.48047 80.3086 7.48047C82.1133 7.48047 83.3711 8.5332 83.4941 10.1328H81.8262C81.6895 9.42188 81.1699 8.875 80.3223 8.875C79.2422 8.875 78.5176 9.79102 78.5176 11.2812C78.5176 12.8125 79.2285 13.7285 80.3223 13.7285C81.1016 13.7285 81.6758 13.2773 81.8262 12.4707H83.4941C83.3574 14.043 82.168 15.1504 80.3086 15.1504ZM88.5117 7.57617V8.91602H87.0488V12.7715C87.0488 13.4824 87.4043 13.6328 87.8418 13.6328C88.0469 13.6328 88.3887 13.6191 88.6074 13.6055V15.0273C88.4023 15.0684 88.0605 15.0957 87.623 15.0957C86.3105 15.0957 85.2988 14.4531 85.3125 13.0586V8.91602H84.2461V7.57617H85.3125V5.79883H87.0488V7.57617H88.5117Z" fill="#C9C9C9"/>
</svg>
