<svg width="363" height="474" viewBox="0 0 363 474" fill="none" xmlns="http://www.w3.org/2000/svg">
<path d="M362 469.969H288.497C297.394 469.969 323.53 469.969 332.427 469.969C341.185 469.969 349.943 469.969 358.701 469.969C329.04 469.969 197.54 469.969 151.032 469.969C81.9772 469.969 13.7693 469.969 4 469.969C4 271.019 4 202.951 4 4H277.4H88.9787H111.323H332.76V115.044L361.987 183.948V470L362 469.969Z" stroke="#0035FF" stroke-miterlimit="10"/>
<path d="M7.68164 18.6816H0.318359L0.318359 0.318359L7.68164 0.318359L7.68164 18.6816Z" fill="#0035FF" stroke="#0035FF" stroke-width="0.637434"/>
<path d="M8.31836 7.68164V0.318359L52.6816 0.318359V7.68164L8.31836 7.68164Z" fill="#0035FF" stroke="#0035FF" stroke-width="0.637434"/>
<path d="M7.68164 466.318V473.682H0.318359V466.318H7.68164Z" fill="#0035FF" stroke="#0035FF" stroke-width="0.637434"/>
</svg>
