<svg width="345" height="65" viewBox="0 0 345 65" fill="none" xmlns="http://www.w3.org/2000/svg">
<rect width="345" height="65" fill="#0035FF"/>
<g clip-path="url(#clip0_88_1305)">
<path d="M16.8852 51.7352V51.693H16.4824L16.649 48.789H16.8827V13.2648H19.737V13.3742L35.7686 13.4065L44.2693 13.4015C50.766 13.4015 55.8529 17.8893 55.8529 23.6177C55.8529 27.3919 53.6103 30.736 50.0126 32.5162C53.6103 34.2988 55.8529 37.6429 55.8529 41.4146C55.8529 47.1431 50.766 51.6308 44.2693 51.6308L34.2495 51.6084L19.737 51.6781V51.7328H16.8852V51.7352ZM35.7313 15.9972C26.8851 16.4 19.9583 23.6525 19.9583 32.5112C19.9583 41.3699 26.7856 48.4981 35.5076 49.0152L44.2718 48.9953C49.2071 48.9953 53.2224 45.5941 53.2224 41.4146C53.2224 37.2352 49.2096 33.8339 44.2743 33.8339H43.5706V31.1984H44.2743C49.2096 31.1984 53.2224 27.7972 53.2224 23.6177C53.2224 19.4382 49.2096 16.037 44.2743 16.037L35.7338 15.9972H35.7313ZM26.4699 48.7915C23.6604 47.0759 21.3406 44.6642 19.7395 41.8V48.7915H26.4699ZM19.7395 23.2249C21.3257 20.3855 23.6181 17.9887 26.3928 16.2707H19.7395V23.2249Z" fill="white"/>
<path d="M36.5642 47.2251C44.6877 47.2251 51.2731 40.6397 51.2731 32.5162C51.2731 24.3927 44.6877 17.8073 36.5642 17.8073C28.4406 17.8073 21.8552 24.3927 21.8552 32.5162C21.8552 40.6397 28.4406 47.2251 36.5642 47.2251Z" fill="#0035FF"/>
<path d="M36.5891 47.4812C36.1117 47.4812 35.6319 47.4589 35.1495 47.4141C26.9348 46.6359 20.8856 39.3187 21.6639 31.104C22.4421 22.8893 29.7592 16.8401 37.9764 17.6208C41.9545 17.9987 45.5497 19.9032 48.0957 22.9837C50.6416 26.0643 51.8376 29.9528 51.4596 33.9309C51.0817 37.909 49.1772 41.5042 46.0967 44.0501C43.3891 46.2878 40.0575 47.4837 36.5891 47.4837V47.4812ZM36.5518 18.0609C29.1899 18.0609 22.8797 23.6799 22.1711 31.1537C21.4177 39.09 27.263 46.1585 35.1993 46.9094C39.0431 47.2749 42.7999 46.1187 45.776 43.6598C48.7521 41.1984 50.5919 37.7275 50.9549 33.8837C51.3179 30.0399 50.1643 26.2831 47.7053 23.307C45.2439 20.3309 41.773 18.491 37.9292 18.128C37.4668 18.0833 37.0093 18.0634 36.5543 18.0634L36.5518 18.0609Z" fill="white"/>
<path d="M49.4333 28.6252L50.8803 28.1478C49.0057 22.5014 43.9461 18.1927 37.6532 17.5959L37.509 19.1126C43.1828 19.6496 47.7426 23.5357 49.4333 28.6252Z" fill="white"/>
<path d="M36.7905 45.91L36.8775 47.4316C42.8173 47.0835 48.2872 43.3093 50.4925 37.3869L49.0654 36.8549C47.0788 42.1954 42.146 45.5967 36.7905 45.91Z" fill="white"/>
<path d="M25.2839 25.6839L23.986 24.8883C22.4744 27.3597 21.6987 30.204 21.7111 33.0732L23.2302 33.1677C23.2004 30.5471 23.9015 27.944 25.2839 25.6839Z" fill="white"/>
<path d="M48.1553 32.5162C52.2875 31.1562 55.1493 27.6803 55.1493 23.6177C55.1493 18.3716 50.3806 14.1051 44.2717 14.1051L35.7686 14.1101L19.0333 14.0753V13.9684H17.5888V49.4951H17.3153L17.2283 50.9869H17.5888V51.0291H19.0333V50.9769L34.2519 50.9048L44.2692 50.9272C50.3806 50.9272 55.1468 46.6607 55.1468 41.4146C55.1468 37.352 52.2851 33.8762 48.1528 32.5162H48.1553ZM29.2893 15.5646C24.4982 17.5884 20.7439 21.5715 19.0358 26.5118V15.5646H29.2893ZM19.0358 38.5106C20.7588 43.4882 24.5628 47.4886 29.4086 49.4951H19.0358V38.5106ZM44.2717 49.7014L35.4876 49.7213C26.4475 49.1992 19.2546 41.6807 19.2546 32.5137C19.2546 23.3467 26.5693 15.7013 35.7164 15.2936L44.2717 15.3334C49.5949 15.3334 53.926 19.0504 53.926 23.6177C53.926 28.185 49.5949 31.902 44.2717 31.902V33.1303C49.5949 33.1303 53.926 36.8473 53.926 41.4146C53.926 45.9819 49.5949 49.699 44.2717 49.699V49.7014Z" fill="#0035FF"/>
<path d="M36.569 41.805C41.5563 41.805 45.5993 37.762 45.5993 32.7747C45.5993 27.7875 41.5563 23.7445 36.569 23.7445C31.5818 23.7445 27.5388 27.7875 27.5388 32.7747C27.5388 37.762 31.5818 41.805 36.569 41.805Z" fill="white"/>
<path d="M20.5325 12.4916H16V17.0241H20.5325V12.4916Z" fill="white"/>
<path d="M20.5796 47.976H16.0471V52.5085H20.5796V47.976Z" fill="white"/>
<path d="M35.7673 29.8383V31.9916C35.7673 32.4929 35.6124 32.8985 35.3025 33.2084C35.6215 33.5638 35.781 33.9512 35.781 34.3705V36.6127C35.781 36.9271 35.6671 37.1983 35.4392 37.4261C35.2113 37.6495 34.9379 37.7611 34.6189 37.7611H30.5583C30.3988 37.7611 30.2621 37.7064 30.1482 37.597C30.0388 37.4831 29.9841 37.3464 29.9841 37.1869C29.9841 37.0274 30.0388 36.8929 30.1482 36.7836C30.2621 36.6696 30.3988 36.6127 30.5583 36.6127H34.6052V34.3705C34.6052 34.211 34.5483 34.0743 34.4343 33.9603C34.325 33.8418 34.1905 33.7826 34.031 33.7826H31.7205C31.561 33.7826 31.4242 33.7279 31.3103 33.6185C31.2009 33.5092 31.1462 33.3724 31.1462 33.2084C31.1462 33.0489 31.2009 32.9144 31.3103 32.8051C31.4242 32.6911 31.561 32.6342 31.7205 32.6342H34.0447C34.1996 32.6342 34.3341 32.5795 34.448 32.4701C34.5619 32.3562 34.6189 32.2194 34.6189 32.0599V29.8383H30.5173C30.3578 29.8383 30.2211 29.7836 30.1072 29.6742C29.9978 29.5603 29.9431 29.4235 29.9431 29.264C29.9431 29.1045 29.9978 28.9701 30.1072 28.8607C30.2211 28.7468 30.3578 28.6898 30.5173 28.6898H34.6189C34.9379 28.6898 35.2091 28.8038 35.4324 29.0316C35.6557 29.2549 35.7673 29.5238 35.7673 29.8383Z" fill="#0035FF"/>
<rect x="37.5" y="33.2416" width="5" height="4" rx="1" stroke="#0035FF" stroke-width="1.2"/>
<rect x="37.5" y="29.2416" width="5" height="4" rx="1" stroke="#0035FF" stroke-width="1.2"/>
</g>
<path d="M78.0234 42V22.2031H85.2695C89.4805 22.2031 91.5312 24.4727 91.5312 27.3984C91.5312 29.8594 90.0273 31.1172 88.1953 31.582V31.7734C90.1641 31.8828 92.2969 33.6055 92.2969 36.668C92.2969 39.7031 90.2188 42 85.5977 42H78.0234ZM85.3242 39.4297C88.168 39.4297 89.3164 38.1719 89.3164 36.5312C89.3164 34.6445 87.8125 33.1133 85.4336 33.1133H81.0312V39.4297H85.3242ZM85.0234 30.7617C87.0195 30.7617 88.5781 29.5312 88.5781 27.6445C88.5781 26.0039 87.457 24.7734 85.0781 24.7734H81.0312V30.7617H85.0234ZM95.2773 42V27.1523H98.0938V29.5039H98.2578C98.8047 27.918 100.281 26.9336 102.031 26.9336C102.387 26.9336 102.961 26.9609 103.262 26.9883V29.7773C103.016 29.7227 102.332 29.6133 101.73 29.6133C99.707 29.6133 98.2031 31.0078 98.2031 32.9492V42H95.2773ZM104.602 37.8164C104.602 34.4258 107.473 33.5508 110.152 33.3594C111.137 33.291 113.365 33.168 114.062 33.1406L114.035 31.9648C114.035 30.2969 113.023 29.3125 111.027 29.3125C109.305 29.3125 108.266 30.1055 107.965 31.1992H105.066C105.34 28.7383 107.637 26.9609 111.137 26.9609C113.488 26.9609 116.961 27.8359 116.961 32.1289V42H114.117V39.9766H114.008C113.434 41.0977 112.066 42.3281 109.605 42.3281C106.789 42.3281 104.602 40.7148 104.602 37.8164ZM107.445 37.8438C107.445 39.2656 108.621 40.0039 110.262 40.0039C112.641 40.0039 114.062 38.418 114.062 36.6406V35.2734L110.562 35.5195C108.648 35.6562 107.445 36.3672 107.445 37.8438ZM123.414 33.1953V42H120.488V27.1523H123.305V29.5859H123.469C124.18 28 125.629 26.9609 127.844 26.9609C130.906 26.9609 132.902 28.875 132.902 32.5664V42H130.004V32.9219C130.004 30.7617 128.828 29.4766 126.859 29.4766C124.863 29.4766 123.414 30.8164 123.414 33.1953ZM142.008 42.3008C138.426 42.3008 135.801 39.4023 135.801 34.6172C135.801 29.7773 138.453 26.9609 142.035 26.9609C144.797 26.9609 145.809 28.6289 146.328 29.5586H146.465V22.2031H149.391V42H146.547V39.6758H146.328C145.781 40.6602 144.715 42.3008 142.008 42.3008ZM142.664 39.8125C145.152 39.8125 146.547 37.6797 146.547 34.5625C146.547 31.4727 145.18 29.4492 142.664 29.4492C140.066 29.4492 138.781 31.6367 138.781 34.5625C138.781 37.543 140.121 39.8125 142.664 39.8125ZM160.273 22.2031H163.938L170.199 37.543H170.445L176.707 22.2031H180.371V42H177.5V27.6992H177.309L171.512 41.9727H169.133L163.309 27.6719H163.145V42H160.273V22.2031ZM183.488 37.8164C183.488 34.4258 186.359 33.5508 189.039 33.3594C190.023 33.291 192.252 33.168 192.949 33.1406L192.922 31.9648C192.922 30.2969 191.91 29.3125 189.914 29.3125C188.191 29.3125 187.152 30.1055 186.852 31.1992H183.953C184.227 28.7383 186.523 26.9609 190.023 26.9609C192.375 26.9609 195.848 27.8359 195.848 32.1289V42H193.004V39.9766H192.895C192.32 41.0977 190.953 42.3281 188.492 42.3281C185.676 42.3281 183.488 40.7148 183.488 37.8164ZM186.332 37.8438C186.332 39.2656 187.508 40.0039 189.148 40.0039C191.527 40.0039 192.949 38.418 192.949 36.6406V35.2734L189.449 35.5195C187.535 35.6562 186.332 36.3672 186.332 37.8438ZM202.301 33.1953V42H199.375V27.1523H202.191V29.5859H202.355C203.066 28 204.516 26.9609 206.73 26.9609C209.793 26.9609 211.789 28.875 211.789 32.5664V42H208.891V32.9219C208.891 30.7617 207.715 29.4766 205.746 29.4766C203.75 29.4766 202.301 30.8164 202.301 33.1953ZM214.66 37.8164C214.66 34.4258 217.531 33.5508 220.211 33.3594C221.195 33.291 223.424 33.168 224.121 33.1406L224.094 31.9648C224.094 30.2969 223.082 29.3125 221.086 29.3125C219.363 29.3125 218.324 30.1055 218.023 31.1992H215.125C215.398 28.7383 217.695 26.9609 221.195 26.9609C223.547 26.9609 227.02 27.8359 227.02 32.1289V42H224.176V39.9766H224.066C223.492 41.0977 222.125 42.3281 219.664 42.3281C216.848 42.3281 214.66 40.7148 214.66 37.8164ZM217.504 37.8438C217.504 39.2656 218.68 40.0039 220.32 40.0039C222.699 40.0039 224.121 38.418 224.121 36.6406V35.2734L220.621 35.5195C218.707 35.6562 217.504 36.3672 217.504 37.8438ZM236.781 47.8789C233.035 47.8789 230.574 46.2109 230.301 43.4492H233.281C233.555 44.8438 234.867 45.5273 236.809 45.5273C239.133 45.5273 240.609 44.543 240.609 42.2188V39.293H240.418C239.898 40.25 238.832 41.7812 236.098 41.7812C232.598 41.7812 229.891 39.1562 229.891 34.4258C229.891 29.6953 232.543 26.9609 236.125 26.9609C238.887 26.9609 239.898 28.6289 240.445 29.5586H240.637V27.1523H243.48V42.3281C243.48 46.1289 240.609 47.8789 236.781 47.8789ZM236.754 39.375C239.242 39.375 240.637 37.543 240.637 34.4805C240.637 31.4727 239.27 29.4492 236.754 29.4492C234.156 29.4492 232.871 31.6367 232.871 34.4805C232.871 37.3789 234.211 39.375 236.754 39.375ZM253.434 42.3008C249.059 42.3008 246.379 39.293 246.379 34.6719C246.379 30.1055 249.113 26.9609 253.242 26.9609C256.633 26.9609 259.832 29.0664 259.832 34.4258V35.4648H249.277C249.359 38.2812 251.014 39.8945 253.461 39.8945C255.129 39.8945 256.195 39.1836 256.688 38.2812H259.641C258.984 40.6875 256.688 42.3008 253.434 42.3008ZM249.305 33.2773H256.961C256.961 31.0078 255.512 29.3672 253.27 29.3672C250.932 29.3672 249.414 31.1719 249.305 33.2773ZM262.73 42V27.1523H265.547V29.5859H265.711C266.34 27.918 267.789 26.9609 269.758 26.9609C271.727 26.9609 273.121 27.9453 273.75 29.5859H273.914C274.625 27.9727 276.211 26.9609 278.371 26.9609C281.051 26.9609 282.965 28.6562 282.965 32.0469V42H280.039V32.3203C280.039 30.3242 278.781 29.4766 277.25 29.4766C275.363 29.4766 274.297 30.7617 274.297 32.5391V42H271.398V32.1562C271.398 30.543 270.277 29.4766 268.691 29.4766C267.051 29.4766 265.656 30.8438 265.656 32.8398V42H262.73ZM292.891 42.3008C288.516 42.3008 285.836 39.293 285.836 34.6719C285.836 30.1055 288.57 26.9609 292.699 26.9609C296.09 26.9609 299.289 29.0664 299.289 34.4258V35.4648H288.734C288.816 38.2812 290.471 39.8945 292.918 39.8945C294.586 39.8945 295.652 39.1836 296.145 38.2812H299.098C298.441 40.6875 296.145 42.3008 292.891 42.3008ZM288.762 33.2773H296.418C296.418 31.0078 294.969 29.3672 292.727 29.3672C290.389 29.3672 288.871 31.1719 288.762 33.2773ZM305.113 33.1953V42H302.188V27.1523H305.004V29.5859H305.168C305.879 28 307.328 26.9609 309.543 26.9609C312.605 26.9609 314.602 28.875 314.602 32.5664V42H311.703V32.9219C311.703 30.7617 310.527 29.4766 308.559 29.4766C306.562 29.4766 305.113 30.8164 305.113 33.1953ZM325.102 27.1523V29.4766H322.066V37.625C322.066 39.293 322.914 39.5938 323.844 39.6211C324.254 39.6211 324.91 39.5664 325.32 39.5391V42.082C324.91 42.1367 324.281 42.1914 323.488 42.1914C321.191 42.1914 319.141 40.9336 319.168 38.2266V29.4766H316.98V27.1523H319.168V23.5977H322.066V27.1523H325.102Z" fill="white"/>
<defs>
<clipPath id="clip0_88_1305">
<rect width="44" height="40.017" fill="white" transform="translate(16 12.4916)"/>
</clipPath>
</defs>
</svg>
