<svg width="345" height="65" viewBox="0 0 345 65" fill="none" xmlns="http://www.w3.org/2000/svg">
<path d="M18.0234 42V22.2031H25.2695C29.4805 22.2031 31.5312 24.4727 31.5312 27.3984C31.5312 29.8594 30.0273 31.1172 28.1953 31.582V31.7734C30.1641 31.8828 32.2969 33.6055 32.2969 36.668C32.2969 39.7031 30.2188 42 25.5977 42H18.0234ZM25.3242 39.4297C28.168 39.4297 29.3164 38.1719 29.3164 36.5312C29.3164 34.6445 27.8125 33.1133 25.4336 33.1133H21.0312V39.4297H25.3242ZM25.0234 30.7617C27.0195 30.7617 28.5781 29.5312 28.5781 27.6445C28.5781 26.0039 27.457 24.7734 25.0781 24.7734H21.0312V30.7617H25.0234ZM35.2773 42V27.1523H38.0938V29.5039H38.2578C38.8047 27.918 40.2812 26.9336 42.0312 26.9336C42.3867 26.9336 42.9609 26.9609 43.2617 26.9883V29.7773C43.0156 29.7227 42.332 29.6133 41.7305 29.6133C39.707 29.6133 38.2031 31.0078 38.2031 32.9492V42H35.2773ZM44.6016 37.8164C44.6016 34.4258 47.4727 33.5508 50.1523 33.3594C51.1367 33.291 53.3652 33.168 54.0625 33.1406L54.0352 31.9648C54.0352 30.2969 53.0234 29.3125 51.0273 29.3125C49.3047 29.3125 48.2656 30.1055 47.9648 31.1992H45.0664C45.3398 28.7383 47.6367 26.9609 51.1367 26.9609C53.4883 26.9609 56.9609 27.8359 56.9609 32.1289V42H54.1172V39.9766H54.0078C53.4336 41.0977 52.0664 42.3281 49.6055 42.3281C46.7891 42.3281 44.6016 40.7148 44.6016 37.8164ZM47.4453 37.8438C47.4453 39.2656 48.6211 40.0039 50.2617 40.0039C52.6406 40.0039 54.0625 38.418 54.0625 36.6406V35.2734L50.5625 35.5195C48.6484 35.6562 47.4453 36.3672 47.4453 37.8438ZM63.4141 33.1953V42H60.4883V27.1523H63.3047V29.5859H63.4688C64.1797 28 65.6289 26.9609 67.8438 26.9609C70.9062 26.9609 72.9023 28.875 72.9023 32.5664V42H70.0039V32.9219C70.0039 30.7617 68.8281 29.4766 66.8594 29.4766C64.8633 29.4766 63.4141 30.8164 63.4141 33.1953ZM82.0078 42.3008C78.4258 42.3008 75.8008 39.4023 75.8008 34.6172C75.8008 29.7773 78.4531 26.9609 82.0352 26.9609C84.7969 26.9609 85.8086 28.6289 86.3281 29.5586H86.4648V22.2031H89.3906V42H86.5469V39.6758H86.3281C85.7812 40.6602 84.7148 42.3008 82.0078 42.3008ZM82.6641 39.8125C85.1523 39.8125 86.5469 37.6797 86.5469 34.5625C86.5469 31.4727 85.1797 29.4492 82.6641 29.4492C80.0664 29.4492 78.7812 31.6367 78.7812 34.5625C78.7812 37.543 80.1211 39.8125 82.6641 39.8125ZM100.273 22.2031H103.938L110.199 37.543H110.445L116.707 22.2031H120.371V42H117.5V27.6992H117.309L111.512 41.9727H109.133L103.309 27.6719H103.145V42H100.273V22.2031ZM123.488 37.8164C123.488 34.4258 126.359 33.5508 129.039 33.3594C130.023 33.291 132.252 33.168 132.949 33.1406L132.922 31.9648C132.922 30.2969 131.91 29.3125 129.914 29.3125C128.191 29.3125 127.152 30.1055 126.852 31.1992H123.953C124.227 28.7383 126.523 26.9609 130.023 26.9609C132.375 26.9609 135.848 27.8359 135.848 32.1289V42H133.004V39.9766H132.895C132.32 41.0977 130.953 42.3281 128.492 42.3281C125.676 42.3281 123.488 40.7148 123.488 37.8164ZM126.332 37.8438C126.332 39.2656 127.508 40.0039 129.148 40.0039C131.527 40.0039 132.949 38.418 132.949 36.6406V35.2734L129.449 35.5195C127.535 35.6562 126.332 36.3672 126.332 37.8438ZM142.301 33.1953V42H139.375V27.1523H142.191V29.5859H142.355C143.066 28 144.516 26.9609 146.73 26.9609C149.793 26.9609 151.789 28.875 151.789 32.5664V42H148.891V32.9219C148.891 30.7617 147.715 29.4766 145.746 29.4766C143.75 29.4766 142.301 30.8164 142.301 33.1953ZM154.66 37.8164C154.66 34.4258 157.531 33.5508 160.211 33.3594C161.195 33.291 163.424 33.168 164.121 33.1406L164.094 31.9648C164.094 30.2969 163.082 29.3125 161.086 29.3125C159.363 29.3125 158.324 30.1055 158.023 31.1992H155.125C155.398 28.7383 157.695 26.9609 161.195 26.9609C163.547 26.9609 167.02 27.8359 167.02 32.1289V42H164.176V39.9766H164.066C163.492 41.0977 162.125 42.3281 159.664 42.3281C156.848 42.3281 154.66 40.7148 154.66 37.8164ZM157.504 37.8438C157.504 39.2656 158.68 40.0039 160.32 40.0039C162.699 40.0039 164.121 38.418 164.121 36.6406V35.2734L160.621 35.5195C158.707 35.6562 157.504 36.3672 157.504 37.8438ZM176.781 47.8789C173.035 47.8789 170.574 46.2109 170.301 43.4492H173.281C173.555 44.8438 174.867 45.5273 176.809 45.5273C179.133 45.5273 180.609 44.543 180.609 42.2188V39.293H180.418C179.898 40.25 178.832 41.7812 176.098 41.7812C172.598 41.7812 169.891 39.1562 169.891 34.4258C169.891 29.6953 172.543 26.9609 176.125 26.9609C178.887 26.9609 179.898 28.6289 180.445 29.5586H180.637V27.1523H183.48V42.3281C183.48 46.1289 180.609 47.8789 176.781 47.8789ZM176.754 39.375C179.242 39.375 180.637 37.543 180.637 34.4805C180.637 31.4727 179.27 29.4492 176.754 29.4492C174.156 29.4492 172.871 31.6367 172.871 34.4805C172.871 37.3789 174.211 39.375 176.754 39.375ZM193.434 42.3008C189.059 42.3008 186.379 39.293 186.379 34.6719C186.379 30.1055 189.113 26.9609 193.242 26.9609C196.633 26.9609 199.832 29.0664 199.832 34.4258V35.4648H189.277C189.359 38.2812 191.014 39.8945 193.461 39.8945C195.129 39.8945 196.195 39.1836 196.688 38.2812H199.641C198.984 40.6875 196.688 42.3008 193.434 42.3008ZM189.305 33.2773H196.961C196.961 31.0078 195.512 29.3672 193.27 29.3672C190.932 29.3672 189.414 31.1719 189.305 33.2773ZM202.73 42V27.1523H205.547V29.5859H205.711C206.34 27.918 207.789 26.9609 209.758 26.9609C211.727 26.9609 213.121 27.9453 213.75 29.5859H213.914C214.625 27.9727 216.211 26.9609 218.371 26.9609C221.051 26.9609 222.965 28.6562 222.965 32.0469V42H220.039V32.3203C220.039 30.3242 218.781 29.4766 217.25 29.4766C215.363 29.4766 214.297 30.7617 214.297 32.5391V42H211.398V32.1562C211.398 30.543 210.277 29.4766 208.691 29.4766C207.051 29.4766 205.656 30.8438 205.656 32.8398V42H202.73ZM232.891 42.3008C228.516 42.3008 225.836 39.293 225.836 34.6719C225.836 30.1055 228.57 26.9609 232.699 26.9609C236.09 26.9609 239.289 29.0664 239.289 34.4258V35.4648H228.734C228.816 38.2812 230.471 39.8945 232.918 39.8945C234.586 39.8945 235.652 39.1836 236.145 38.2812H239.098C238.441 40.6875 236.145 42.3008 232.891 42.3008ZM228.762 33.2773H236.418C236.418 31.0078 234.969 29.3672 232.727 29.3672C230.389 29.3672 228.871 31.1719 228.762 33.2773ZM245.113 33.1953V42H242.188V27.1523H245.004V29.5859H245.168C245.879 28 247.328 26.9609 249.543 26.9609C252.605 26.9609 254.602 28.875 254.602 32.5664V42H251.703V32.9219C251.703 30.7617 250.527 29.4766 248.559 29.4766C246.562 29.4766 245.113 30.8164 245.113 33.1953ZM265.102 27.1523V29.4766H262.066V37.625C262.066 39.293 262.914 39.5938 263.844 39.6211C264.254 39.6211 264.91 39.5664 265.32 39.5391V42.082C264.91 42.1367 264.281 42.1914 263.488 42.1914C261.191 42.1914 259.141 40.9336 259.168 38.2266V29.4766H256.98V27.1523H259.168V23.5977H262.066V27.1523H265.102Z" fill="#747474"/>
</svg>
