<svg width="345" height="100" viewBox="0 0 345 100" fill="none" xmlns="http://www.w3.org/2000/svg">
<path d="M24.4492 42H18.0234V22.2031H24.6406C30.4648 22.2031 33.9648 25.9219 33.9648 32.0742C33.9648 38.2539 30.4648 42 24.4492 42ZM21.0312 39.375H24.2852C28.7695 39.375 30.9844 36.75 30.9844 32.0742C30.9844 27.4258 28.7695 24.8281 24.4492 24.8281H21.0312V39.375ZM37.1094 42V27.1523H40.0352V42H37.1094ZM38.5859 24.8555C37.5742 24.8555 36.7266 24.0898 36.7266 23.1328C36.7266 22.1758 37.5742 21.4102 38.5859 21.4102C39.5703 21.4102 40.418 22.1758 40.418 23.1328C40.418 24.0898 39.5703 24.8555 38.5859 24.8555ZM49.8242 47.8789C46.0781 47.8789 43.6172 46.2109 43.3438 43.4492H46.3242C46.5977 44.8438 47.9102 45.5273 49.8516 45.5273C52.1758 45.5273 53.6523 44.543 53.6523 42.2188V39.293H53.4609C52.9414 40.25 51.875 41.7812 49.1406 41.7812C45.6406 41.7812 42.9336 39.1562 42.9336 34.4258C42.9336 29.6953 45.5859 26.9609 49.168 26.9609C51.9297 26.9609 52.9414 28.6289 53.4883 29.5586H53.6797V27.1523H56.5234V42.3281C56.5234 46.1289 53.6523 47.8789 49.8242 47.8789ZM49.7969 39.375C52.2852 39.375 53.6797 37.543 53.6797 34.4805C53.6797 31.4727 52.3125 29.4492 49.7969 29.4492C47.1992 29.4492 45.9141 31.6367 45.9141 34.4805C45.9141 37.3789 47.2539 39.375 49.7969 39.375ZM60.0781 42V27.1523H63.0039V42H60.0781ZM61.5547 24.8555C60.543 24.8555 59.6953 24.0898 59.6953 23.1328C59.6953 22.1758 60.543 21.4102 61.5547 21.4102C62.5391 21.4102 63.3867 22.1758 63.3867 23.1328C63.3867 24.0898 62.5391 24.8555 61.5547 24.8555ZM73.5039 27.1523V29.4766H70.4688V37.625C70.4688 39.293 71.3164 39.5938 72.2461 39.6211C72.6562 39.6211 73.3125 39.5664 73.7227 39.5391V42.082C73.3125 42.1367 72.6836 42.1914 71.8906 42.1914C69.5938 42.1914 67.543 40.9336 67.5703 38.2266V29.4766H65.3828V27.1523H67.5703V23.5977H70.4688V27.1523H73.5039ZM75.6641 37.8164C75.6641 34.4258 78.5352 33.5508 81.2148 33.3594C82.1992 33.291 84.4277 33.168 85.125 33.1406L85.0977 31.9648C85.0977 30.2969 84.0859 29.3125 82.0898 29.3125C80.3672 29.3125 79.3281 30.1055 79.0273 31.1992H76.1289C76.4023 28.7383 78.6992 26.9609 82.1992 26.9609C84.5508 26.9609 88.0234 27.8359 88.0234 32.1289V42H85.1797V39.9766H85.0703C84.4961 41.0977 83.1289 42.3281 80.668 42.3281C77.8516 42.3281 75.6641 40.7148 75.6641 37.8164ZM78.5078 37.8438C78.5078 39.2656 79.6836 40.0039 81.3242 40.0039C83.7031 40.0039 85.125 38.418 85.125 36.6406V35.2734L81.625 35.5195C79.7109 35.6562 78.5078 36.3672 78.5078 37.8438ZM94.4766 22.2031V42H91.5508V22.2031H94.4766ZM118.512 28.6562C118.02 26.1133 115.914 24.6914 113.398 24.6914C109.98 24.6914 107.438 27.3164 107.438 32.1016C107.438 36.9141 110.008 39.5117 113.398 39.5117C115.887 39.5117 117.992 38.1172 118.512 35.6016L121.547 35.6289C120.918 39.5391 117.719 42.2734 113.371 42.2734C108.203 42.2734 104.457 38.418 104.457 32.1016C104.457 25.7578 108.23 21.9297 113.371 21.9297C117.555 21.9297 120.863 24.3906 121.547 28.6562H118.512ZM130.844 42.3008C126.633 42.3008 123.898 39.2383 123.898 34.6445C123.898 30.0234 126.633 26.9609 130.844 26.9609C135.027 26.9609 137.762 30.0234 137.762 34.6445C137.762 39.2383 135.027 42.3008 130.844 42.3008ZM130.844 39.8672C133.523 39.8672 134.809 37.4883 134.809 34.6445C134.809 31.8008 133.523 29.3672 130.844 29.3672C128.109 29.3672 126.824 31.8008 126.824 34.6445C126.824 37.4883 128.109 39.8672 130.844 39.8672ZM143.559 33.1953V42H140.633V27.1523H143.449V29.5859H143.613C144.324 28 145.773 26.9609 147.988 26.9609C151.051 26.9609 153.047 28.875 153.047 32.5664V42H150.148V32.9219C150.148 30.7617 148.973 29.4766 147.004 29.4766C145.008 29.4766 143.559 30.8164 143.559 33.1953ZM168.797 27.1523L163.41 42H160.266L154.879 27.1523H158.023L161.77 38.5547H161.906L165.652 27.1523H168.797ZM177.055 42.3008C172.68 42.3008 170 39.293 170 34.6719C170 30.1055 172.734 26.9609 176.863 26.9609C180.254 26.9609 183.453 29.0664 183.453 34.4258V35.4648H172.898C172.98 38.2812 174.635 39.8945 177.082 39.8945C178.75 39.8945 179.816 39.1836 180.309 38.2812H183.262C182.605 40.6875 180.309 42.3008 177.055 42.3008ZM172.926 33.2773H180.582C180.582 31.0078 179.133 29.3672 176.891 29.3672C174.553 29.3672 173.035 31.1719 172.926 33.2773ZM186.352 42V27.1523H189.168V29.5039H189.332C189.879 27.918 191.355 26.9336 193.105 26.9336C193.461 26.9336 194.035 26.9609 194.336 26.9883V29.7773C194.09 29.7227 193.406 29.6133 192.805 29.6133C190.781 29.6133 189.277 31.0078 189.277 32.9492V42H186.352ZM202.266 47.8789C198.52 47.8789 196.059 46.2109 195.785 43.4492H198.766C199.039 44.8438 200.352 45.5273 202.293 45.5273C204.617 45.5273 206.094 44.543 206.094 42.2188V39.293H205.902C205.383 40.25 204.316 41.7812 201.582 41.7812C198.082 41.7812 195.375 39.1562 195.375 34.4258C195.375 29.6953 198.027 26.9609 201.609 26.9609C204.371 26.9609 205.383 28.6289 205.93 29.5586H206.121V27.1523H208.965V42.3281C208.965 46.1289 206.094 47.8789 202.266 47.8789ZM202.238 39.375C204.727 39.375 206.121 37.543 206.121 34.4805C206.121 31.4727 204.754 29.4492 202.238 29.4492C199.641 29.4492 198.355 31.6367 198.355 34.4805C198.355 37.3789 199.695 39.375 202.238 39.375ZM218.918 42.3008C214.543 42.3008 211.863 39.293 211.863 34.6719C211.863 30.1055 214.598 26.9609 218.727 26.9609C222.117 26.9609 225.316 29.0664 225.316 34.4258V35.4648H214.762C214.844 38.2812 216.498 39.8945 218.945 39.8945C220.613 39.8945 221.68 39.1836 222.172 38.2812H225.125C224.469 40.6875 222.172 42.3008 218.918 42.3008ZM214.789 33.2773H222.445C222.445 31.0078 220.996 29.3672 218.754 29.3672C216.416 29.3672 214.898 31.1719 214.789 33.2773ZM231.141 33.1953V42H228.215V27.1523H231.031V29.5859H231.195C231.906 28 233.355 26.9609 235.57 26.9609C238.633 26.9609 240.629 28.875 240.629 32.5664V42H237.73V32.9219C237.73 30.7617 236.555 29.4766 234.586 29.4766C232.59 29.4766 231.141 30.8164 231.141 33.1953ZM250.473 42.3008C246.152 42.3008 243.527 39.1016 243.527 34.6445C243.527 30.1055 246.234 26.9609 250.418 26.9609C253.809 26.9609 256.27 28.957 256.57 31.9648H253.727C253.426 30.5703 252.305 29.3945 250.473 29.3945C248.066 29.3945 246.453 31.3906 246.453 34.5625C246.453 37.8164 248.039 39.8125 250.473 39.8125C252.113 39.8125 253.371 38.9102 253.727 37.2969H256.57C256.242 40.168 253.973 42.3008 250.473 42.3008ZM265.73 42.3008C261.355 42.3008 258.676 39.293 258.676 34.6719C258.676 30.1055 261.41 26.9609 265.539 26.9609C268.93 26.9609 272.129 29.0664 272.129 34.4258V35.4648H261.574C261.656 38.2812 263.311 39.8945 265.758 39.8945C267.426 39.8945 268.492 39.1836 268.984 38.2812H271.938C271.281 40.6875 268.984 42.3008 265.73 42.3008ZM261.602 33.2773H269.258C269.258 31.0078 267.809 29.3672 265.566 29.3672C263.229 29.3672 261.711 31.1719 261.602 33.2773ZM18.0234 78V58.2031H25.0781C29.6719 58.2031 31.9414 60.9648 31.9414 64.6289C31.9414 68.2656 29.6719 71.0547 25.0781 71.0547H21.0312V78H18.0234ZM21.0312 68.4844H24.7773C27.7031 68.4844 28.9062 66.8438 28.9062 64.6289C28.9062 62.3867 27.7031 60.7734 24.7773 60.7734H21.0312V68.4844ZM34.8672 78V63.1523H37.6836V65.5039H37.8477C38.3945 63.918 39.8711 62.9336 41.6211 62.9336C41.9766 62.9336 42.5508 62.9609 42.8516 62.9883V65.7773C42.6055 65.7227 41.9219 65.6133 41.3203 65.6133C39.2969 65.6133 37.793 67.0078 37.793 68.9492V78H34.8672ZM50.8359 78.3008C46.625 78.3008 43.8906 75.2383 43.8906 70.6445C43.8906 66.0234 46.625 62.9609 50.8359 62.9609C55.0195 62.9609 57.7539 66.0234 57.7539 70.6445C57.7539 75.2383 55.0195 78.3008 50.8359 78.3008ZM50.8359 75.8672C53.5156 75.8672 54.8008 73.4883 54.8008 70.6445C54.8008 67.8008 53.5156 65.3672 50.8359 65.3672C48.1016 65.3672 46.8164 67.8008 46.8164 70.6445C46.8164 73.4883 48.1016 75.8672 50.8359 75.8672ZM60.625 63.1523H63.5508V78.957C63.5508 81.9648 61.8828 83.5781 58.8203 83.5781C58.6289 83.5781 58.4375 83.5781 58.2188 83.5508V81.0625H58.6836C60.0508 81.0625 60.625 80.2969 60.625 78.9297V63.1523ZM62.0742 60.8555C61.0625 60.8555 60.2148 60.0898 60.2148 59.1328C60.2148 58.1758 61.0625 57.4102 62.0742 57.4102C63.0586 57.4102 63.9062 58.1758 63.9062 59.1328C63.9062 60.0898 63.0586 60.8555 62.0742 60.8555ZM73.5039 78.3008C69.1289 78.3008 66.4492 75.293 66.4492 70.6719C66.4492 66.1055 69.1836 62.9609 73.3125 62.9609C76.7031 62.9609 79.9023 65.0664 79.9023 70.4258V71.4648H69.3477C69.4297 74.2812 71.084 75.8945 73.5312 75.8945C75.1992 75.8945 76.2656 75.1836 76.7578 74.2812H79.7109C79.0547 76.6875 76.7578 78.3008 73.5039 78.3008ZM69.375 69.2773H77.0312C77.0312 67.0078 75.582 65.3672 73.3398 65.3672C71.002 65.3672 69.4844 67.1719 69.375 69.2773ZM89.0898 78.3008C84.7695 78.3008 82.1445 75.1016 82.1445 70.6445C82.1445 66.1055 84.8516 62.9609 89.0352 62.9609C92.4258 62.9609 94.8867 64.957 95.1875 67.9648H92.3438C92.043 66.5703 90.9219 65.3945 89.0898 65.3945C86.6836 65.3945 85.0703 67.3906 85.0703 70.5625C85.0703 73.8164 86.6562 75.8125 89.0898 75.8125C90.7305 75.8125 91.9883 74.9102 92.3438 73.2969H95.1875C94.8594 76.168 92.5898 78.3008 89.0898 78.3008ZM104.895 63.1523V65.4766H101.859V73.625C101.859 75.293 102.707 75.5938 103.637 75.6211C104.047 75.6211 104.703 75.5664 105.113 75.5391V78.082C104.703 78.1367 104.074 78.1914 103.281 78.1914C100.984 78.1914 98.9336 76.9336 98.9609 74.2266V65.4766H96.7734V63.1523H98.9609V59.5977H101.859V63.1523H104.895Z" fill="#747474"/>
</svg>
