<svg width="345" height="100" viewBox="0 0 345 100" fill="none" xmlns="http://www.w3.org/2000/svg">
<rect width="345" height="100" fill="#0035FF"/>
<g clip-path="url(#clip0_88_1322)">
<path d="M16.9819 57.5311V14.8577H20.148V14.9735H37.6305C38.0001 14.9542 38.3724 14.9459 38.742 14.9459C39.4094 14.9459 40.0823 14.979 40.7415 15.0397C52.4158 16.1456 61.0123 26.543 59.9063 38.2173C59.3713 43.8711 56.663 48.9788 52.2862 52.5999C48.4251 55.7909 43.7532 57.4787 38.7723 57.4787H38.7254V57.487H20.148V57.5339H16.9819V57.5311ZM38.7172 17.8666C34.1804 17.8666 29.8173 19.5544 26.4306 22.6157C23.0218 25.6991 20.9065 29.9104 20.4735 34.4776C20.0129 39.3481 21.4774 44.111 24.6048 47.8894C27.7296 51.6705 32.134 54.0065 37.0017 54.467C37.5892 54.5222 38.1821 54.5498 38.7668 54.5498C43.0609 54.5498 47.0902 53.0936 50.4191 50.3412C54.1947 47.2192 56.5279 42.8148 56.9912 37.936C57.9455 27.8668 50.5321 18.9008 40.4629 17.9465C39.8838 17.8914 39.2963 17.8638 38.7172 17.8638V17.8666ZM27.5062 54.2657C24.4421 52.3545 21.9048 49.6848 20.148 46.5242V54.2657H27.5062ZM20.148 25.8839C21.891 22.7564 24.409 20.1032 27.4565 18.192H20.148V25.8839Z" fill="white"/>
<path d="M38.811 52.5283C47.8221 52.5283 55.1269 45.2234 55.1269 36.2124C55.1269 27.2014 47.8221 19.8965 38.811 19.8965C29.8 19.8965 22.4951 27.2014 22.4951 36.2124C22.4951 45.2234 29.8 52.5283 38.811 52.5283Z" fill="#0035FF"/>
<path d="M38.8385 52.8123C38.309 52.8123 37.7767 52.7875 37.2417 52.7379C32.829 52.3186 28.841 50.2061 26.0169 46.789C23.1928 43.3719 21.8662 39.0585 22.2854 34.6458C22.7046 30.2331 24.8172 26.2452 28.2343 23.4211C31.6513 20.5969 35.9647 19.2704 40.3774 19.6896C49.4896 20.5528 56.1997 28.6694 55.3364 37.7816C54.9172 42.1943 52.8046 46.1822 49.3876 49.0064C46.3842 51.4885 42.6886 52.8151 38.8413 52.8151L38.8385 52.8123ZM38.7806 20.175C35.0629 20.175 31.4941 21.4547 28.59 23.8541C25.2888 26.5844 23.2479 30.4345 22.8453 34.6982C22.4426 38.962 23.7223 43.1292 26.4499 46.4305C29.1802 49.7317 33.0303 51.7726 37.2941 52.1752C41.5578 52.5806 45.725 51.2982 49.0263 48.5706C52.3275 45.8403 54.3684 41.9902 54.7711 37.7264C55.6067 28.9231 49.1228 21.0823 40.3195 20.2494C39.8038 20.1998 39.288 20.175 38.7778 20.175H38.7806Z" fill="white"/>
<path d="M38.8164 46.516C44.3485 46.516 48.8332 42.0313 48.8332 36.4992C48.8332 30.9671 44.3485 26.4824 38.8164 26.4824C33.2842 26.4824 28.7996 30.9671 28.7996 36.4992C28.7996 42.0313 33.2842 46.516 38.8164 46.516Z" fill="white"/>
<path d="M33.5183 39.8805H37.7186C38.0358 39.8805 38.3281 40.057 38.3281 40.512C38.3281 40.9671 38.0358 41.1436 37.7186 41.1436H32.2993V37.0315C32.2993 36.0856 32.7626 35.6057 33.6783 35.6057H37.1091V32.5913H32.9088C32.5917 32.5913 32.2993 32.4147 32.2993 31.9597C32.2993 31.5046 32.5917 31.3281 32.9088 31.3281H36.963C37.3656 31.3281 37.6469 31.3916 37.9531 31.6811C38.2951 32.0093 38.3309 32.3486 38.3309 32.8036V35.3906C38.3309 35.8456 38.2951 36.1848 37.9531 36.513C37.6469 36.8026 37.3684 36.866 36.963 36.866H33.5211V39.8805H33.5183Z" fill="#0035FF"/>
<path d="M44.4314 39.8804V37.3321C44.4314 36.9653 44.5914 36.7005 45.0409 36.7005C45.4905 36.7005 45.6504 36.9653 45.6504 37.3321V40.512C45.6504 40.967 45.3581 41.1435 45.0409 41.1435H40.2311C39.9139 41.1435 39.6216 40.967 39.6216 40.512C39.6216 40.0569 39.9139 39.8804 40.2311 39.8804H42.0265V32.5884H40.2311C39.9139 32.5884 39.6216 32.4119 39.6216 31.9569C39.6216 31.5018 39.9139 31.3253 40.2311 31.3253H43.2455V39.8804H44.4287H44.4314Z" fill="#0035FF"/>
<path d="M53.0859 31.8962L54.691 31.3666C52.6115 25.1034 46.9992 20.3239 40.0188 19.662L39.8589 21.3443C46.1525 21.94 51.2105 26.2507 53.0859 31.8962Z" fill="white"/>
<path d="M39.0618 51.0693L39.1583 52.7571C45.747 52.371 51.8144 48.1845 54.2607 41.6151L52.6777 41.0249C50.4741 46.9489 45.0023 50.7218 39.0618 51.0693Z" fill="white"/>
<path d="M26.298 28.6335L24.8584 27.751C23.1816 30.4924 22.3211 33.6474 22.3349 36.8301L24.02 36.9349C23.9869 34.028 24.7646 31.1405 26.298 28.6335Z" fill="white"/>
<path d="M40.6642 15.8174C39.6465 15.7209 38.6399 15.7044 37.6498 15.754H19.3675V15.6382H17.7651V56.7506H19.3675V56.7037H38.7226L38.6923 56.6955C38.7171 56.6955 38.7447 56.6955 38.7695 56.6955C43.5187 56.6955 48.0775 55.06 51.7842 51.996C56.0011 48.5099 58.6073 43.5898 59.1258 38.1429C60.1904 26.8988 51.9111 16.882 40.667 15.8174H40.6642ZM30.6116 17.4088C25.4046 19.6675 21.2594 24.0416 19.3675 29.5409V17.4088H30.6116ZM19.3675 42.8645C21.2429 48.2948 25.3522 52.7627 30.6888 55.0462H19.3675V42.8645ZM57.7689 38.0133C57.2863 43.0989 54.8538 47.6908 50.9154 50.9452C46.9799 54.1996 42.0101 55.7274 36.9245 55.2448C26.4278 54.2492 18.6973 44.8998 19.6902 34.4031C20.6306 24.516 28.9789 17.0861 38.7171 17.0861C39.3184 17.0861 39.9251 17.1137 40.5374 17.1716C51.034 18.1672 58.7645 27.5166 57.7717 38.0133H57.7689Z" fill="#0035FF"/>
<path d="M21.0277 14H16V19.0277H21.0277V14Z" fill="white"/>
<path d="M21.0802 53.3612H16.0525V58.3889H21.0802V53.3612Z" fill="white"/>
</g>
<path d="M84.4492 42H78.0234V22.2031H84.6406C90.4648 22.2031 93.9648 25.9219 93.9648 32.0742C93.9648 38.2539 90.4648 42 84.4492 42ZM81.0312 39.375H84.2852C88.7695 39.375 90.9844 36.75 90.9844 32.0742C90.9844 27.4258 88.7695 24.8281 84.4492 24.8281H81.0312V39.375ZM97.1094 42V27.1523H100.035V42H97.1094ZM98.5859 24.8555C97.5742 24.8555 96.7266 24.0898 96.7266 23.1328C96.7266 22.1758 97.5742 21.4102 98.5859 21.4102C99.5703 21.4102 100.418 22.1758 100.418 23.1328C100.418 24.0898 99.5703 24.8555 98.5859 24.8555ZM109.824 47.8789C106.078 47.8789 103.617 46.2109 103.344 43.4492H106.324C106.598 44.8438 107.91 45.5273 109.852 45.5273C112.176 45.5273 113.652 44.543 113.652 42.2188V39.293H113.461C112.941 40.25 111.875 41.7812 109.141 41.7812C105.641 41.7812 102.934 39.1562 102.934 34.4258C102.934 29.6953 105.586 26.9609 109.168 26.9609C111.93 26.9609 112.941 28.6289 113.488 29.5586H113.68V27.1523H116.523V42.3281C116.523 46.1289 113.652 47.8789 109.824 47.8789ZM109.797 39.375C112.285 39.375 113.68 37.543 113.68 34.4805C113.68 31.4727 112.312 29.4492 109.797 29.4492C107.199 29.4492 105.914 31.6367 105.914 34.4805C105.914 37.3789 107.254 39.375 109.797 39.375ZM120.078 42V27.1523H123.004V42H120.078ZM121.555 24.8555C120.543 24.8555 119.695 24.0898 119.695 23.1328C119.695 22.1758 120.543 21.4102 121.555 21.4102C122.539 21.4102 123.387 22.1758 123.387 23.1328C123.387 24.0898 122.539 24.8555 121.555 24.8555ZM133.504 27.1523V29.4766H130.469V37.625C130.469 39.293 131.316 39.5938 132.246 39.6211C132.656 39.6211 133.312 39.5664 133.723 39.5391V42.082C133.312 42.1367 132.684 42.1914 131.891 42.1914C129.594 42.1914 127.543 40.9336 127.57 38.2266V29.4766H125.383V27.1523H127.57V23.5977H130.469V27.1523H133.504ZM135.664 37.8164C135.664 34.4258 138.535 33.5508 141.215 33.3594C142.199 33.291 144.428 33.168 145.125 33.1406L145.098 31.9648C145.098 30.2969 144.086 29.3125 142.09 29.3125C140.367 29.3125 139.328 30.1055 139.027 31.1992H136.129C136.402 28.7383 138.699 26.9609 142.199 26.9609C144.551 26.9609 148.023 27.8359 148.023 32.1289V42H145.18V39.9766H145.07C144.496 41.0977 143.129 42.3281 140.668 42.3281C137.852 42.3281 135.664 40.7148 135.664 37.8164ZM138.508 37.8438C138.508 39.2656 139.684 40.0039 141.324 40.0039C143.703 40.0039 145.125 38.418 145.125 36.6406V35.2734L141.625 35.5195C139.711 35.6562 138.508 36.3672 138.508 37.8438ZM154.477 22.2031V42H151.551V22.2031H154.477ZM178.512 28.6562C178.02 26.1133 175.914 24.6914 173.398 24.6914C169.98 24.6914 167.438 27.3164 167.438 32.1016C167.438 36.9141 170.008 39.5117 173.398 39.5117C175.887 39.5117 177.992 38.1172 178.512 35.6016L181.547 35.6289C180.918 39.5391 177.719 42.2734 173.371 42.2734C168.203 42.2734 164.457 38.418 164.457 32.1016C164.457 25.7578 168.23 21.9297 173.371 21.9297C177.555 21.9297 180.863 24.3906 181.547 28.6562H178.512ZM190.844 42.3008C186.633 42.3008 183.898 39.2383 183.898 34.6445C183.898 30.0234 186.633 26.9609 190.844 26.9609C195.027 26.9609 197.762 30.0234 197.762 34.6445C197.762 39.2383 195.027 42.3008 190.844 42.3008ZM190.844 39.8672C193.523 39.8672 194.809 37.4883 194.809 34.6445C194.809 31.8008 193.523 29.3672 190.844 29.3672C188.109 29.3672 186.824 31.8008 186.824 34.6445C186.824 37.4883 188.109 39.8672 190.844 39.8672ZM203.559 33.1953V42H200.633V27.1523H203.449V29.5859H203.613C204.324 28 205.773 26.9609 207.988 26.9609C211.051 26.9609 213.047 28.875 213.047 32.5664V42H210.148V32.9219C210.148 30.7617 208.973 29.4766 207.004 29.4766C205.008 29.4766 203.559 30.8164 203.559 33.1953ZM228.797 27.1523L223.41 42H220.266L214.879 27.1523H218.023L221.77 38.5547H221.906L225.652 27.1523H228.797ZM237.055 42.3008C232.68 42.3008 230 39.293 230 34.6719C230 30.1055 232.734 26.9609 236.863 26.9609C240.254 26.9609 243.453 29.0664 243.453 34.4258V35.4648H232.898C232.98 38.2812 234.635 39.8945 237.082 39.8945C238.75 39.8945 239.816 39.1836 240.309 38.2812H243.262C242.605 40.6875 240.309 42.3008 237.055 42.3008ZM232.926 33.2773H240.582C240.582 31.0078 239.133 29.3672 236.891 29.3672C234.553 29.3672 233.035 31.1719 232.926 33.2773ZM246.352 42V27.1523H249.168V29.5039H249.332C249.879 27.918 251.355 26.9336 253.105 26.9336C253.461 26.9336 254.035 26.9609 254.336 26.9883V29.7773C254.09 29.7227 253.406 29.6133 252.805 29.6133C250.781 29.6133 249.277 31.0078 249.277 32.9492V42H246.352ZM262.266 47.8789C258.52 47.8789 256.059 46.2109 255.785 43.4492H258.766C259.039 44.8438 260.352 45.5273 262.293 45.5273C264.617 45.5273 266.094 44.543 266.094 42.2188V39.293H265.902C265.383 40.25 264.316 41.7812 261.582 41.7812C258.082 41.7812 255.375 39.1562 255.375 34.4258C255.375 29.6953 258.027 26.9609 261.609 26.9609C264.371 26.9609 265.383 28.6289 265.93 29.5586H266.121V27.1523H268.965V42.3281C268.965 46.1289 266.094 47.8789 262.266 47.8789ZM262.238 39.375C264.727 39.375 266.121 37.543 266.121 34.4805C266.121 31.4727 264.754 29.4492 262.238 29.4492C259.641 29.4492 258.355 31.6367 258.355 34.4805C258.355 37.3789 259.695 39.375 262.238 39.375ZM278.918 42.3008C274.543 42.3008 271.863 39.293 271.863 34.6719C271.863 30.1055 274.598 26.9609 278.727 26.9609C282.117 26.9609 285.316 29.0664 285.316 34.4258V35.4648H274.762C274.844 38.2812 276.498 39.8945 278.945 39.8945C280.613 39.8945 281.68 39.1836 282.172 38.2812H285.125C284.469 40.6875 282.172 42.3008 278.918 42.3008ZM274.789 33.2773H282.445C282.445 31.0078 280.996 29.3672 278.754 29.3672C276.416 29.3672 274.898 31.1719 274.789 33.2773ZM291.141 33.1953V42H288.215V27.1523H291.031V29.5859H291.195C291.906 28 293.355 26.9609 295.57 26.9609C298.633 26.9609 300.629 28.875 300.629 32.5664V42H297.73V32.9219C297.73 30.7617 296.555 29.4766 294.586 29.4766C292.59 29.4766 291.141 30.8164 291.141 33.1953ZM310.473 42.3008C306.152 42.3008 303.527 39.1016 303.527 34.6445C303.527 30.1055 306.234 26.9609 310.418 26.9609C313.809 26.9609 316.27 28.957 316.57 31.9648H313.727C313.426 30.5703 312.305 29.3945 310.473 29.3945C308.066 29.3945 306.453 31.3906 306.453 34.5625C306.453 37.8164 308.039 39.8125 310.473 39.8125C312.113 39.8125 313.371 38.9102 313.727 37.2969H316.57C316.242 40.168 313.973 42.3008 310.473 42.3008ZM325.73 42.3008C321.355 42.3008 318.676 39.293 318.676 34.6719C318.676 30.1055 321.41 26.9609 325.539 26.9609C328.93 26.9609 332.129 29.0664 332.129 34.4258V35.4648H321.574C321.656 38.2812 323.311 39.8945 325.758 39.8945C327.426 39.8945 328.492 39.1836 328.984 38.2812H331.938C331.281 40.6875 328.984 42.3008 325.73 42.3008ZM321.602 33.2773H329.258C329.258 31.0078 327.809 29.3672 325.566 29.3672C323.229 29.3672 321.711 31.1719 321.602 33.2773ZM78.0234 78V58.2031H85.0781C89.6719 58.2031 91.9414 60.9648 91.9414 64.6289C91.9414 68.2656 89.6719 71.0547 85.0781 71.0547H81.0312V78H78.0234ZM81.0312 68.4844H84.7773C87.7031 68.4844 88.9062 66.8438 88.9062 64.6289C88.9062 62.3867 87.7031 60.7734 84.7773 60.7734H81.0312V68.4844ZM94.8672 78V63.1523H97.6836V65.5039H97.8477C98.3945 63.918 99.8711 62.9336 101.621 62.9336C101.977 62.9336 102.551 62.9609 102.852 62.9883V65.7773C102.605 65.7227 101.922 65.6133 101.32 65.6133C99.2969 65.6133 97.793 67.0078 97.793 68.9492V78H94.8672ZM110.836 78.3008C106.625 78.3008 103.891 75.2383 103.891 70.6445C103.891 66.0234 106.625 62.9609 110.836 62.9609C115.02 62.9609 117.754 66.0234 117.754 70.6445C117.754 75.2383 115.02 78.3008 110.836 78.3008ZM110.836 75.8672C113.516 75.8672 114.801 73.4883 114.801 70.6445C114.801 67.8008 113.516 65.3672 110.836 65.3672C108.102 65.3672 106.816 67.8008 106.816 70.6445C106.816 73.4883 108.102 75.8672 110.836 75.8672ZM120.625 63.1523H123.551V78.957C123.551 81.9648 121.883 83.5781 118.82 83.5781C118.629 83.5781 118.438 83.5781 118.219 83.5508V81.0625H118.684C120.051 81.0625 120.625 80.2969 120.625 78.9297V63.1523ZM122.074 60.8555C121.062 60.8555 120.215 60.0898 120.215 59.1328C120.215 58.1758 121.062 57.4102 122.074 57.4102C123.059 57.4102 123.906 58.1758 123.906 59.1328C123.906 60.0898 123.059 60.8555 122.074 60.8555ZM133.504 78.3008C129.129 78.3008 126.449 75.293 126.449 70.6719C126.449 66.1055 129.184 62.9609 133.312 62.9609C136.703 62.9609 139.902 65.0664 139.902 70.4258V71.4648H129.348C129.43 74.2812 131.084 75.8945 133.531 75.8945C135.199 75.8945 136.266 75.1836 136.758 74.2812H139.711C139.055 76.6875 136.758 78.3008 133.504 78.3008ZM129.375 69.2773H137.031C137.031 67.0078 135.582 65.3672 133.34 65.3672C131.002 65.3672 129.484 67.1719 129.375 69.2773ZM149.09 78.3008C144.77 78.3008 142.145 75.1016 142.145 70.6445C142.145 66.1055 144.852 62.9609 149.035 62.9609C152.426 62.9609 154.887 64.957 155.188 67.9648H152.344C152.043 66.5703 150.922 65.3945 149.09 65.3945C146.684 65.3945 145.07 67.3906 145.07 70.5625C145.07 73.8164 146.656 75.8125 149.09 75.8125C150.73 75.8125 151.988 74.9102 152.344 73.2969H155.188C154.859 76.168 152.59 78.3008 149.09 78.3008ZM164.895 63.1523V65.4766H161.859V73.625C161.859 75.293 162.707 75.5938 163.637 75.6211C164.047 75.6211 164.703 75.5664 165.113 75.5391V78.082C164.703 78.1367 164.074 78.1914 163.281 78.1914C160.984 78.1914 158.934 76.9336 158.961 74.2266V65.4766H156.773V63.1523H158.961V59.5977H161.859V63.1523H164.895Z" fill="white"/>
<defs>
<clipPath id="clip0_88_1322">
<rect width="44" height="44.3889" fill="white" transform="translate(16 14)"/>
</clipPath>
</defs>
</svg>
