<svg width="345" height="65" viewBox="0 0 345 65" fill="none" xmlns="http://www.w3.org/2000/svg">
<path d="M21.0312 22.2031V42H18.0234V22.2031H21.0312ZM27.7305 33.1953V42H24.8047V27.1523H27.6211V29.5859H27.7852C28.4961 28 29.9453 26.9609 32.1602 26.9609C35.2227 26.9609 37.2188 28.875 37.2188 32.5664V42H34.3203V32.9219C34.3203 30.7617 33.1445 29.4766 31.1758 29.4766C29.1797 29.4766 27.7305 30.8164 27.7305 33.1953ZM47.7188 27.1523V29.4766H44.6836V37.625C44.6836 39.293 45.5312 39.5938 46.4609 39.6211C46.8711 39.6211 47.5273 39.5664 47.9375 39.5391V42.082C47.5273 42.1367 46.8984 42.1914 46.1055 42.1914C43.8086 42.1914 41.7578 40.9336 41.7852 38.2266V29.4766H39.5977V27.1523H41.7852V23.5977H44.6836V27.1523H47.7188ZM56.7969 42.3008C52.4219 42.3008 49.7422 39.293 49.7422 34.6719C49.7422 30.1055 52.4766 26.9609 56.6055 26.9609C59.9961 26.9609 63.1953 29.0664 63.1953 34.4258V35.4648H52.6406C52.7227 38.2812 54.377 39.8945 56.8242 39.8945C58.4922 39.8945 59.5586 39.1836 60.0508 38.2812H63.0039C62.3477 40.6875 60.0508 42.3008 56.7969 42.3008ZM52.668 33.2773H60.3242C60.3242 31.0078 58.875 29.3672 56.6328 29.3672C54.2949 29.3672 52.7773 31.1719 52.668 33.2773ZM66.0938 42V27.1523H68.9102V29.5039H69.0742C69.6211 27.918 71.0977 26.9336 72.8477 26.9336C73.2031 26.9336 73.7773 26.9609 74.0781 26.9883V29.7773C73.832 29.7227 73.1484 29.6133 72.5469 29.6133C70.5234 29.6133 69.0195 31.0078 69.0195 32.9492V42H66.0938ZM75.418 37.8164C75.418 34.4258 78.2891 33.5508 80.9688 33.3594C81.9531 33.291 84.1816 33.168 84.8789 33.1406L84.8516 31.9648C84.8516 30.2969 83.8398 29.3125 81.8438 29.3125C80.1211 29.3125 79.082 30.1055 78.7812 31.1992H75.8828C76.1562 28.7383 78.4531 26.9609 81.9531 26.9609C84.3047 26.9609 87.7773 27.8359 87.7773 32.1289V42H84.9336V39.9766H84.8242C84.25 41.0977 82.8828 42.3281 80.4219 42.3281C77.6055 42.3281 75.418 40.7148 75.418 37.8164ZM78.2617 37.8438C78.2617 39.2656 79.4375 40.0039 81.0781 40.0039C83.457 40.0039 84.8789 38.418 84.8789 36.6406V35.2734L81.3789 35.5195C79.4648 35.6562 78.2617 36.3672 78.2617 37.8438ZM97.5938 42.3008C93.2734 42.3008 90.6484 39.1016 90.6484 34.6445C90.6484 30.1055 93.3555 26.9609 97.5391 26.9609C100.93 26.9609 103.391 28.957 103.691 31.9648H100.848C100.547 30.5703 99.4258 29.3945 97.5938 29.3945C95.1875 29.3945 93.5742 31.3906 93.5742 34.5625C93.5742 37.8164 95.1602 39.8125 97.5938 39.8125C99.2344 39.8125 100.492 38.9102 100.848 37.2969H103.691C103.363 40.168 101.094 42.3008 97.5938 42.3008ZM113.398 27.1523V29.4766H110.363V37.625C110.363 39.293 111.211 39.5938 112.141 39.6211C112.551 39.6211 113.207 39.5664 113.617 39.5391V42.082C113.207 42.1367 112.578 42.1914 111.785 42.1914C109.488 42.1914 107.438 40.9336 107.465 38.2266V29.4766H105.277V27.1523H107.465V23.5977H110.363V27.1523H113.398ZM116.242 42V27.1523H119.168V42H116.242ZM117.719 24.8555C116.707 24.8555 115.859 24.0898 115.859 23.1328C115.859 22.1758 116.707 21.4102 117.719 21.4102C118.703 21.4102 119.551 22.1758 119.551 23.1328C119.551 24.0898 118.703 24.8555 117.719 24.8555ZM129.012 42.3008C124.801 42.3008 122.066 39.2383 122.066 34.6445C122.066 30.0234 124.801 26.9609 129.012 26.9609C133.195 26.9609 135.93 30.0234 135.93 34.6445C135.93 39.2383 133.195 42.3008 129.012 42.3008ZM129.012 39.8672C131.691 39.8672 132.977 37.4883 132.977 34.6445C132.977 31.8008 131.691 29.3672 129.012 29.3672C126.277 29.3672 124.992 31.8008 124.992 34.6445C124.992 37.4883 126.277 39.8672 129.012 39.8672ZM141.727 33.1953V42H138.801V27.1523H141.617V29.5859H141.781C142.492 28 143.941 26.9609 146.156 26.9609C149.219 26.9609 151.215 28.875 151.215 32.5664V42H148.316V32.9219C148.316 30.7617 147.141 29.4766 145.172 29.4766C143.176 29.4766 141.727 30.8164 141.727 33.1953ZM161.852 42V22.2031H169.098C173.309 22.2031 175.359 24.4727 175.359 27.3984C175.359 29.8594 173.855 31.1172 172.023 31.582V31.7734C173.992 31.8828 176.125 33.6055 176.125 36.668C176.125 39.7031 174.047 42 169.426 42H161.852ZM169.152 39.4297C171.996 39.4297 173.145 38.1719 173.145 36.5312C173.145 34.6445 171.641 33.1133 169.262 33.1133H164.859V39.4297H169.152ZM168.852 30.7617C170.848 30.7617 172.406 29.5312 172.406 27.6445C172.406 26.0039 171.285 24.7734 168.906 24.7734H164.859V30.7617H168.852ZM188.539 35.8203V27.1523H191.438V42H188.594V39.4297H188.43C187.746 41.0156 186.215 42.1914 184 42.1914C181.129 42.1914 179.105 40.2773 179.105 36.5859V27.1523H182.031V36.2305C182.031 38.2539 183.262 39.5391 185.039 39.5391C186.652 39.5391 188.539 38.3633 188.539 35.8203ZM203.332 31.1992C203.059 30.0234 202.129 29.2578 200.516 29.2578C198.848 29.2578 197.645 30.1328 197.672 31.2539C197.645 32.1289 198.355 32.7578 199.996 33.1406L202.348 33.6875C205.082 34.2891 206.395 35.6016 206.422 37.707C206.395 40.3867 204.152 42.3008 200.352 42.3008C196.797 42.3008 194.664 40.7148 194.309 37.9531H197.289C197.535 39.293 198.574 39.9492 200.324 39.9492C202.211 39.9492 203.414 39.1836 203.441 37.9258C203.414 36.9688 202.703 36.3398 201.145 35.9844L198.82 35.4922C196.141 34.8906 194.746 33.4688 194.746 31.418C194.746 28.7656 197.043 26.9609 200.488 26.9609C203.797 26.9609 205.848 28.6562 206.148 31.1992H203.332ZM209.266 42V27.1523H212.191V42H209.266ZM210.742 24.8555C209.73 24.8555 208.883 24.0898 208.883 23.1328C208.883 22.1758 209.73 21.4102 210.742 21.4102C211.727 21.4102 212.574 22.1758 212.574 23.1328C212.574 24.0898 211.727 24.8555 210.742 24.8555ZM218.672 33.1953V42H215.746V27.1523H218.562V29.5859H218.727C219.438 28 220.887 26.9609 223.102 26.9609C226.164 26.9609 228.16 28.875 228.16 32.5664V42H225.262V32.9219C225.262 30.7617 224.086 29.4766 222.117 29.4766C220.121 29.4766 218.672 30.8164 218.672 33.1953ZM238.113 42.3008C233.738 42.3008 231.059 39.293 231.059 34.6719C231.059 30.1055 233.793 26.9609 237.922 26.9609C241.312 26.9609 244.512 29.0664 244.512 34.4258V35.4648H233.957C234.039 38.2812 235.693 39.8945 238.141 39.8945C239.809 39.8945 240.875 39.1836 241.367 38.2812H244.32C243.664 40.6875 241.367 42.3008 238.113 42.3008ZM233.984 33.2773H241.641C241.641 31.0078 240.191 29.3672 237.949 29.3672C235.611 29.3672 234.094 31.1719 233.984 33.2773ZM255.75 31.1992C255.477 30.0234 254.547 29.2578 252.934 29.2578C251.266 29.2578 250.062 30.1328 250.09 31.2539C250.062 32.1289 250.773 32.7578 252.414 33.1406L254.766 33.6875C257.5 34.2891 258.812 35.6016 258.84 37.707C258.812 40.3867 256.57 42.3008 252.77 42.3008C249.215 42.3008 247.082 40.7148 246.727 37.9531H249.707C249.953 39.293 250.992 39.9492 252.742 39.9492C254.629 39.9492 255.832 39.1836 255.859 37.9258C255.832 36.9688 255.121 36.3398 253.562 35.9844L251.238 35.4922C248.559 34.8906 247.164 33.4688 247.164 31.418C247.164 28.7656 249.461 26.9609 252.906 26.9609C256.215 26.9609 258.266 28.6562 258.566 31.1992H255.75ZM270.023 31.1992C269.75 30.0234 268.82 29.2578 267.207 29.2578C265.539 29.2578 264.336 30.1328 264.363 31.2539C264.336 32.1289 265.047 32.7578 266.688 33.1406L269.039 33.6875C271.773 34.2891 273.086 35.6016 273.113 37.707C273.086 40.3867 270.844 42.3008 267.043 42.3008C263.488 42.3008 261.355 40.7148 261 37.9531H263.98C264.227 39.293 265.266 39.9492 267.016 39.9492C268.902 39.9492 270.105 39.1836 270.133 37.9258C270.105 36.9688 269.395 36.3398 267.836 35.9844L265.512 35.4922C262.832 34.8906 261.438 33.4688 261.438 31.418C261.438 28.7656 263.734 26.9609 267.18 26.9609C270.488 26.9609 272.539 28.6562 272.84 31.1992H270.023Z" fill="#747474"/>
</svg>
