<svg width="345" height="65" viewBox="0 0 345 65" fill="none" xmlns="http://www.w3.org/2000/svg">
<rect width="345" height="65" fill="#0035FF"/>
<g clip-path="url(#clip0_88_1342)">
<path d="M37.9998 49.3802C47.3217 49.3802 54.8786 41.8233 54.8786 32.5014C54.8786 23.1796 47.3217 15.6227 37.9998 15.6227C28.678 15.6227 21.1211 23.1796 21.1211 32.5014C21.1211 41.8233 28.678 49.3802 37.9998 49.3802Z" fill="#0035FF"/>
<path d="M38.0313 49.6741C37.4835 49.6741 36.9328 49.6484 36.3793 49.5971C31.8144 49.1634 27.6889 46.9779 24.7674 43.443C21.8458 39.908 20.4735 35.4458 20.9072 30.8809C21.3408 26.316 23.5263 22.1905 27.0612 19.269C30.5962 16.3474 35.0584 14.9751 39.6233 15.4088C49.0498 16.3018 55.9913 24.6983 55.0983 34.1249C54.6646 38.6898 52.4792 42.8153 48.9443 45.7369C45.8373 48.3046 42.0142 49.6769 38.0341 49.6769L38.0313 49.6741ZM37.9714 15.9109C34.1254 15.9109 30.4336 17.2347 27.4293 19.7169C24.0142 22.5414 21.9029 26.5243 21.4863 30.9351C21.0698 35.346 22.3936 39.657 25.2153 43.0721C28.0398 46.4872 32.0227 48.5985 36.4336 49.015C40.8444 49.4344 45.1554 48.1077 48.5705 45.2861C51.9856 42.4615 54.0969 38.4787 54.5134 34.0678C55.3779 24.9608 48.6704 16.8496 39.5634 15.9879C39.0298 15.9366 38.4963 15.9109 37.9685 15.9109H37.9714Z" fill="white"/>
<path d="M38.0086 43.1577C43.7315 43.1577 48.3709 38.5183 48.3709 32.7953C48.3709 27.0724 43.7315 22.433 38.0086 22.433C32.2856 22.433 27.6462 27.0724 27.6462 32.7953C27.6462 38.5183 32.2856 43.1577 38.0086 43.1577Z" fill="white"/>
<path d="M36.2397 36.2932V33.657C36.2397 33.2775 36.4051 33.0036 36.8702 33.0036C37.3352 33.0036 37.5007 33.2775 37.5007 33.657V36.9466C37.5007 37.4173 37.1983 37.5999 36.8702 37.5999H31.8944C31.5663 37.5999 31.2639 37.4173 31.2639 36.9466C31.2639 36.4758 31.5663 36.2932 31.8944 36.2932H33.7518V28.7497H31.8944C31.5663 28.7497 31.2639 28.5671 31.2639 28.0963C31.2639 27.6256 31.5663 27.443 31.8944 27.443H35.0128V36.2932H36.2368H36.2397Z" fill="#0035FF"/>
<path d="M43.8173 36.2932V33.657C43.8173 33.2775 43.9828 33.0036 44.4478 33.0036C44.9129 33.0036 45.0784 33.2775 45.0784 33.657V36.9466C45.0784 37.4173 44.7759 37.5999 44.4478 37.5999H39.4721C39.144 37.5999 38.8416 37.4173 38.8416 36.9466C38.8416 36.4758 39.144 36.2932 39.4721 36.2932H41.3294V28.7497H39.4721C39.144 28.7497 38.8416 28.5671 38.8416 28.0963C38.8416 27.6256 39.144 27.443 39.4721 27.443H42.5905V36.2932H43.8144H43.8173Z" fill="#0035FF"/>
<path d="M52.7702 28.0335L54.4307 27.4857C52.2795 21.0064 46.4735 16.0621 39.2524 15.3773L39.0869 17.1177C45.5976 17.734 50.8301 22.1933 52.7702 28.0335Z" fill="white"/>
<path d="M38.2625 47.868L38.3623 49.6141C45.1783 49.2147 51.455 44.8837 53.9857 38.0877L52.348 37.4772C50.0684 43.6056 44.408 47.5086 38.2625 47.868Z" fill="white"/>
<path d="M25.0585 24.6583L23.5692 23.7454C21.8346 26.5813 20.9444 29.8452 20.9587 33.1377L22.7019 33.2461C22.6677 30.2389 23.4722 27.2518 25.0585 24.6583Z" fill="white"/>
<path d="M37.8801 54.5813L16.1797 54.3131V48.3074L24.2282 49.6455C18.5192 45.0606 15.3923 37.8652 16.097 30.4244C16.6619 24.4586 19.6319 19.0435 24.2396 15.3488L16.1797 16.6926V10.6869L37.8716 10.4187H38.0684L59.7689 10.6869V16.6926L51.7831 15.3631C57.4864 19.9508 60.6077 27.1434 59.903 34.5785C59.3495 40.4273 56.5478 45.7111 52.0199 49.4572C51.9486 49.5171 51.8744 49.577 51.8031 49.6341L59.7717 48.3103V54.316L38.077 54.5842H37.8858L37.8801 54.5813ZM37.9857 13.5257C33.2924 13.5257 28.7789 15.2718 25.2753 18.4387C21.7489 21.6284 19.5606 25.985 19.1127 30.7097C18.1255 41.1263 25.7946 50.4016 36.2111 51.3887C36.8188 51.4458 37.4322 51.4743 38.0371 51.4743C42.4793 51.4743 46.6476 49.9679 50.0913 47.1206C53.9971 43.8909 56.4108 39.3345 56.8901 34.2875C57.3666 29.2489 55.8516 24.3217 52.6162 20.413C49.3837 16.5014 44.8274 14.0849 39.7917 13.6084C39.1926 13.5514 38.5848 13.5228 37.9857 13.5228V13.5257Z" fill="white"/>
<path d="M59.0955 34.5015C59.9143 25.8567 55.3922 17.9166 48.2396 13.9537L58.9585 15.7368V11.4858L38.0655 11.229H37.8801L16.9899 11.4858V15.7368L27.8002 13.9394C21.8658 17.2119 17.5891 23.2632 16.9043 30.5015C16.0855 39.152 20.6162 47.0978 27.7745 51.0578L16.9871 49.2632V53.5143L37.8801 53.7711H38.0655L58.9585 53.5143V49.2632L48.2653 51.0407C49.3979 50.4102 50.4821 49.6769 51.5006 48.8324C55.863 45.2262 58.5591 40.1363 59.0955 34.5015ZM36.134 52.1962C25.2752 51.1662 17.2781 41.4943 18.3052 30.6356C19.2752 20.4073 27.9115 12.7183 37.9857 12.7183C38.6076 12.7183 39.2353 12.7468 39.8687 12.8067C50.7275 13.8367 58.7246 23.5086 57.6975 34.3674C57.1982 39.6284 54.6818 44.3788 50.6076 47.7454C46.5363 51.112 41.3951 52.6926 36.134 52.1933V52.1962Z" fill="#0035FF"/>
</g>
<path d="M81.0312 22.2031V42H78.0234V22.2031H81.0312ZM87.7305 33.1953V42H84.8047V27.1523H87.6211V29.5859H87.7852C88.4961 28 89.9453 26.9609 92.1602 26.9609C95.2227 26.9609 97.2188 28.875 97.2188 32.5664V42H94.3203V32.9219C94.3203 30.7617 93.1445 29.4766 91.1758 29.4766C89.1797 29.4766 87.7305 30.8164 87.7305 33.1953ZM107.719 27.1523V29.4766H104.684V37.625C104.684 39.293 105.531 39.5938 106.461 39.6211C106.871 39.6211 107.527 39.5664 107.938 39.5391V42.082C107.527 42.1367 106.898 42.1914 106.105 42.1914C103.809 42.1914 101.758 40.9336 101.785 38.2266V29.4766H99.5977V27.1523H101.785V23.5977H104.684V27.1523H107.719ZM116.797 42.3008C112.422 42.3008 109.742 39.293 109.742 34.6719C109.742 30.1055 112.477 26.9609 116.605 26.9609C119.996 26.9609 123.195 29.0664 123.195 34.4258V35.4648H112.641C112.723 38.2812 114.377 39.8945 116.824 39.8945C118.492 39.8945 119.559 39.1836 120.051 38.2812H123.004C122.348 40.6875 120.051 42.3008 116.797 42.3008ZM112.668 33.2773H120.324C120.324 31.0078 118.875 29.3672 116.633 29.3672C114.295 29.3672 112.777 31.1719 112.668 33.2773ZM126.094 42V27.1523H128.91V29.5039H129.074C129.621 27.918 131.098 26.9336 132.848 26.9336C133.203 26.9336 133.777 26.9609 134.078 26.9883V29.7773C133.832 29.7227 133.148 29.6133 132.547 29.6133C130.523 29.6133 129.02 31.0078 129.02 32.9492V42H126.094ZM135.418 37.8164C135.418 34.4258 138.289 33.5508 140.969 33.3594C141.953 33.291 144.182 33.168 144.879 33.1406L144.852 31.9648C144.852 30.2969 143.84 29.3125 141.844 29.3125C140.121 29.3125 139.082 30.1055 138.781 31.1992H135.883C136.156 28.7383 138.453 26.9609 141.953 26.9609C144.305 26.9609 147.777 27.8359 147.777 32.1289V42H144.934V39.9766H144.824C144.25 41.0977 142.883 42.3281 140.422 42.3281C137.605 42.3281 135.418 40.7148 135.418 37.8164ZM138.262 37.8438C138.262 39.2656 139.438 40.0039 141.078 40.0039C143.457 40.0039 144.879 38.418 144.879 36.6406V35.2734L141.379 35.5195C139.465 35.6562 138.262 36.3672 138.262 37.8438ZM157.594 42.3008C153.273 42.3008 150.648 39.1016 150.648 34.6445C150.648 30.1055 153.355 26.9609 157.539 26.9609C160.93 26.9609 163.391 28.957 163.691 31.9648H160.848C160.547 30.5703 159.426 29.3945 157.594 29.3945C155.188 29.3945 153.574 31.3906 153.574 34.5625C153.574 37.8164 155.16 39.8125 157.594 39.8125C159.234 39.8125 160.492 38.9102 160.848 37.2969H163.691C163.363 40.168 161.094 42.3008 157.594 42.3008ZM173.398 27.1523V29.4766H170.363V37.625C170.363 39.293 171.211 39.5938 172.141 39.6211C172.551 39.6211 173.207 39.5664 173.617 39.5391V42.082C173.207 42.1367 172.578 42.1914 171.785 42.1914C169.488 42.1914 167.438 40.9336 167.465 38.2266V29.4766H165.277V27.1523H167.465V23.5977H170.363V27.1523H173.398ZM176.242 42V27.1523H179.168V42H176.242ZM177.719 24.8555C176.707 24.8555 175.859 24.0898 175.859 23.1328C175.859 22.1758 176.707 21.4102 177.719 21.4102C178.703 21.4102 179.551 22.1758 179.551 23.1328C179.551 24.0898 178.703 24.8555 177.719 24.8555ZM189.012 42.3008C184.801 42.3008 182.066 39.2383 182.066 34.6445C182.066 30.0234 184.801 26.9609 189.012 26.9609C193.195 26.9609 195.93 30.0234 195.93 34.6445C195.93 39.2383 193.195 42.3008 189.012 42.3008ZM189.012 39.8672C191.691 39.8672 192.977 37.4883 192.977 34.6445C192.977 31.8008 191.691 29.3672 189.012 29.3672C186.277 29.3672 184.992 31.8008 184.992 34.6445C184.992 37.4883 186.277 39.8672 189.012 39.8672ZM201.727 33.1953V42H198.801V27.1523H201.617V29.5859H201.781C202.492 28 203.941 26.9609 206.156 26.9609C209.219 26.9609 211.215 28.875 211.215 32.5664V42H208.316V32.9219C208.316 30.7617 207.141 29.4766 205.172 29.4766C203.176 29.4766 201.727 30.8164 201.727 33.1953ZM221.852 42V22.2031H229.098C233.309 22.2031 235.359 24.4727 235.359 27.3984C235.359 29.8594 233.855 31.1172 232.023 31.582V31.7734C233.992 31.8828 236.125 33.6055 236.125 36.668C236.125 39.7031 234.047 42 229.426 42H221.852ZM229.152 39.4297C231.996 39.4297 233.145 38.1719 233.145 36.5312C233.145 34.6445 231.641 33.1133 229.262 33.1133H224.859V39.4297H229.152ZM228.852 30.7617C230.848 30.7617 232.406 29.5312 232.406 27.6445C232.406 26.0039 231.285 24.7734 228.906 24.7734H224.859V30.7617H228.852ZM248.539 35.8203V27.1523H251.438V42H248.594V39.4297H248.43C247.746 41.0156 246.215 42.1914 244 42.1914C241.129 42.1914 239.105 40.2773 239.105 36.5859V27.1523H242.031V36.2305C242.031 38.2539 243.262 39.5391 245.039 39.5391C246.652 39.5391 248.539 38.3633 248.539 35.8203ZM263.332 31.1992C263.059 30.0234 262.129 29.2578 260.516 29.2578C258.848 29.2578 257.645 30.1328 257.672 31.2539C257.645 32.1289 258.355 32.7578 259.996 33.1406L262.348 33.6875C265.082 34.2891 266.395 35.6016 266.422 37.707C266.395 40.3867 264.152 42.3008 260.352 42.3008C256.797 42.3008 254.664 40.7148 254.309 37.9531H257.289C257.535 39.293 258.574 39.9492 260.324 39.9492C262.211 39.9492 263.414 39.1836 263.441 37.9258C263.414 36.9688 262.703 36.3398 261.145 35.9844L258.82 35.4922C256.141 34.8906 254.746 33.4688 254.746 31.418C254.746 28.7656 257.043 26.9609 260.488 26.9609C263.797 26.9609 265.848 28.6562 266.148 31.1992H263.332ZM269.266 42V27.1523H272.191V42H269.266ZM270.742 24.8555C269.73 24.8555 268.883 24.0898 268.883 23.1328C268.883 22.1758 269.73 21.4102 270.742 21.4102C271.727 21.4102 272.574 22.1758 272.574 23.1328C272.574 24.0898 271.727 24.8555 270.742 24.8555ZM278.672 33.1953V42H275.746V27.1523H278.562V29.5859H278.727C279.438 28 280.887 26.9609 283.102 26.9609C286.164 26.9609 288.16 28.875 288.16 32.5664V42H285.262V32.9219C285.262 30.7617 284.086 29.4766 282.117 29.4766C280.121 29.4766 278.672 30.8164 278.672 33.1953ZM298.113 42.3008C293.738 42.3008 291.059 39.293 291.059 34.6719C291.059 30.1055 293.793 26.9609 297.922 26.9609C301.312 26.9609 304.512 29.0664 304.512 34.4258V35.4648H293.957C294.039 38.2812 295.693 39.8945 298.141 39.8945C299.809 39.8945 300.875 39.1836 301.367 38.2812H304.32C303.664 40.6875 301.367 42.3008 298.113 42.3008ZM293.984 33.2773H301.641C301.641 31.0078 300.191 29.3672 297.949 29.3672C295.611 29.3672 294.094 31.1719 293.984 33.2773ZM315.75 31.1992C315.477 30.0234 314.547 29.2578 312.934 29.2578C311.266 29.2578 310.062 30.1328 310.09 31.2539C310.062 32.1289 310.773 32.7578 312.414 33.1406L314.766 33.6875C317.5 34.2891 318.812 35.6016 318.84 37.707C318.812 40.3867 316.57 42.3008 312.77 42.3008C309.215 42.3008 307.082 40.7148 306.727 37.9531H309.707C309.953 39.293 310.992 39.9492 312.742 39.9492C314.629 39.9492 315.832 39.1836 315.859 37.9258C315.832 36.9688 315.121 36.3398 313.562 35.9844L311.238 35.4922C308.559 34.8906 307.164 33.4688 307.164 31.418C307.164 28.7656 309.461 26.9609 312.906 26.9609C316.215 26.9609 318.266 28.6562 318.566 31.1992H315.75ZM330.023 31.1992C329.75 30.0234 328.82 29.2578 327.207 29.2578C325.539 29.2578 324.336 30.1328 324.363 31.2539C324.336 32.1289 325.047 32.7578 326.688 33.1406L329.039 33.6875C331.773 34.2891 333.086 35.6016 333.113 37.707C333.086 40.3867 330.844 42.3008 327.043 42.3008C323.488 42.3008 321.355 40.7148 321 37.9531H323.98C324.227 39.293 325.266 39.9492 327.016 39.9492C328.902 39.9492 330.105 39.1836 330.133 37.9258C330.105 36.9688 329.395 36.3398 327.836 35.9844L325.512 35.4922C322.832 34.8906 321.438 33.4688 321.438 31.418C321.438 28.7656 323.734 26.9609 327.18 26.9609C330.488 26.9609 332.539 28.6562 332.84 31.1992H330.023Z" fill="white"/>
<defs>
<clipPath id="clip0_88_1342">
<rect width="44" height="44.1626" fill="white" transform="translate(16 10.4187)"/>
</clipPath>
</defs>
</svg>
