<svg width="148" height="26" viewBox="0 0 148 26" fill="none" xmlns="http://www.w3.org/2000/svg">
<path d="M0.336 24.984V0.439999H12.144C13.0613 0.439999 13.9147 0.546665 14.704 0.759998C15.5147 0.951998 16.208 1.272 16.784 1.72C17.3813 2.14667 17.84 2.72267 18.16 3.448C18.5013 4.152 18.672 5.016 18.672 6.04V10.424C18.672 11.4907 18.5013 12.3867 18.16 13.112C17.8187 13.8373 17.3387 14.4133 16.72 14.84C16.1227 15.2667 15.408 15.576 14.576 15.768C13.744 15.9387 12.848 16.024 11.888 16.024H4.432V23.672C4.432 24.0347 4.304 24.3333 4.048 24.568C3.792 24.824 3.48267 24.9627 3.12 24.984H0.336ZM11.76 12.312C12.2933 12.312 12.7307 12.2693 13.072 12.184C13.4347 12.0987 13.712 11.96 13.904 11.768C14.1173 11.5547 14.256 11.288 14.32 10.968C14.4053 10.6267 14.448 10.2107 14.448 9.72V6.52C14.448 5.53867 14.2027 4.89867 13.712 4.6C13.2213 4.30133 12.4853 4.152 11.504 4.152H4.432V12.312H11.76ZM41.877 23.96C42.0477 24.1947 42.0583 24.4187 41.909 24.632C41.7597 24.8667 41.5783 24.984 41.365 24.984H37.557L30.773 15.48H25.557V23.672C25.557 24.0347 25.429 24.344 25.173 24.6C24.917 24.856 24.6077 24.984 24.245 24.984H21.461V0.439999H33.269C34.229 0.439999 35.1037 0.546665 35.893 0.759998C36.7037 0.951998 37.397 1.272 37.973 1.72C38.549 2.168 38.997 2.75467 39.317 3.48C39.637 4.184 39.797 5.05867 39.797 6.104V9.944C39.7543 11.3093 39.381 12.4827 38.677 13.464C37.973 14.4453 36.9597 15.0853 35.637 15.384L41.877 23.96ZM32.693 11.768C33.205 11.768 33.6423 11.736 34.005 11.672C34.389 11.608 34.6983 11.4907 34.933 11.32C35.189 11.128 35.381 10.872 35.509 10.552C35.637 10.2107 35.701 9.76267 35.701 9.208V6.424C35.701 5.86933 35.6157 5.44267 35.445 5.144C35.2743 4.824 35.0397 4.6 34.741 4.472C34.4423 4.32267 34.0797 4.23733 33.653 4.216C33.2477 4.17333 32.8103 4.152 32.341 4.152H25.557V11.768H32.693ZM51.6633 24.984C50.4046 24.9627 49.2739 24.792 48.2713 24.472C47.2899 24.1733 46.4579 23.7147 45.7753 23.096C45.0926 22.4773 44.5593 21.6987 44.1753 20.76C43.8126 19.8 43.6313 18.6693 43.6313 17.368V7.512C43.6526 6.31733 43.8659 5.28267 44.2713 4.408C44.6766 3.512 45.2313 2.776 45.9353 2.2C46.6606 1.624 47.5139 1.19733 48.4953 0.919998C49.4766 0.621332 50.5433 0.471998 51.6953 0.471998H55.5353C58.0953 0.514666 60.0793 1.13333 61.4873 2.328C62.8953 3.52267 63.5993 5.4 63.5993 7.96V17.368C63.5993 18.648 63.4073 19.768 63.0233 20.728C62.6606 21.6667 62.1273 22.456 61.4233 23.096C60.7193 23.736 59.8659 24.2053 58.8633 24.504C57.8819 24.824 56.7726 24.984 55.5353 24.984H51.6633ZM51.2793 4.184C50.0419 4.184 49.1353 4.54667 48.5593 5.272C48.0046 5.976 47.7273 6.91467 47.7273 8.088V17.4C47.7273 18.5733 48.0153 19.512 48.5913 20.216C49.1673 20.92 50.0633 21.272 51.2793 21.272H55.9513C57.1673 21.272 58.0633 20.92 58.6393 20.216C59.2153 19.512 59.5033 18.5733 59.5033 17.4V8.088C59.5033 6.89333 59.2153 5.944 58.6393 5.24C58.0633 4.536 57.1673 4.184 55.9513 4.184H51.2793ZM76.589 21.24C77.0797 21.24 77.4957 21.0693 77.837 20.728C78.1783 20.3653 78.349 19.9387 78.349 19.448V0.439999H81.133C81.4957 0.439999 81.805 0.578665 82.061 0.855999C82.317 1.112 82.445 1.42133 82.445 1.784V18.52C82.445 18.904 82.413 19.416 82.349 20.056C82.3063 20.696 82.157 21.3147 81.901 21.912C81.645 22.5947 81.3143 23.128 80.909 23.512C80.525 23.9173 80.1303 24.2267 79.725 24.44C79.341 24.6533 78.9677 24.792 78.605 24.856C78.2637 24.92 77.997 24.952 77.805 24.952H71.405C70.8077 24.952 70.2103 24.8347 69.613 24.6C69.037 24.3867 68.5037 24.088 68.013 23.704C67.5437 23.32 67.1597 22.872 66.861 22.36C66.5623 21.8267 66.413 21.2613 66.413 20.664V15.896H70.509V19.64C70.509 20.0667 70.669 20.44 70.989 20.76C71.309 21.0587 71.6823 21.2187 72.109 21.24H76.589ZM86.3345 0.439999H103.519V2.84C103.519 3.20267 103.391 3.512 103.135 3.768C102.879 4.024 102.569 4.152 102.207 4.152H90.4305V10.2H102.047V12.568C102.047 12.9307 101.919 13.2507 101.663 13.528C101.407 13.784 101.097 13.912 100.735 13.912H90.4305V21.272H103.519V23.672C103.519 24.0347 103.391 24.344 103.135 24.6C102.879 24.856 102.569 24.984 102.207 24.984H90.3985C89.9292 24.984 89.4918 24.8027 89.0865 24.44L86.9105 22.232C86.5265 21.8053 86.3345 21.3787 86.3345 20.952V0.439999ZM114.485 24.984C111.647 25.0267 109.589 24.3867 108.309 23.064C107.029 21.7413 106.389 19.64 106.389 16.76V8.664C106.41 7.23467 106.559 6.008 106.837 4.984C107.114 3.93867 107.562 3.08533 108.181 2.424C108.799 1.74133 109.621 1.24 110.645 0.919998C111.69 0.599998 112.97 0.439999 114.485 0.439999H124.309V2.84C124.309 3.20267 124.181 3.512 123.925 3.768C123.669 4.024 123.359 4.152 122.997 4.152H114.165C113.418 4.152 112.81 4.25867 112.341 4.472C111.871 4.664 111.498 4.952 111.221 5.336C110.943 5.72 110.751 6.18933 110.645 6.744C110.538 7.29867 110.485 7.928 110.485 8.632V16.408C110.485 17.0907 110.517 17.7307 110.581 18.328C110.666 18.904 110.826 19.416 111.061 19.864C111.317 20.2907 111.69 20.632 112.181 20.888C112.671 21.144 113.333 21.272 114.165 21.272H124.309V23.672C124.309 24.0347 124.181 24.3333 123.925 24.568C123.669 24.824 123.359 24.9627 122.997 24.984H114.485ZM135.476 24.984V4.152H128.756C128.393 4.152 128.084 4.024 127.828 3.768C127.572 3.512 127.444 3.20267 127.444 2.84V0.439999H147.636V2.84C147.636 3.20267 147.508 3.512 147.252 3.768C146.996 4.024 146.686 4.152 146.324 4.152H139.572V23.672C139.572 24.0347 139.444 24.344 139.188 24.6C138.932 24.856 138.622 24.984 138.26 24.984H135.476Z" fill="black"/>
</svg>
