<svg width="345" height="65" viewBox="0 0 345 65" fill="none" xmlns="http://www.w3.org/2000/svg">
<path d="M19.7734 22.2031L25.2695 38.3086H25.4883L30.9844 22.2031H34.2383L27.1016 42H23.6289L16.5195 22.2031H19.7734ZM36.5078 42V27.1523H39.4336V42H36.5078ZM37.9844 24.8555C36.9727 24.8555 36.125 24.0898 36.125 23.1328C36.125 22.1758 36.9727 21.4102 37.9844 21.4102C38.9688 21.4102 39.8164 22.1758 39.8164 23.1328C39.8164 24.0898 38.9688 24.8555 37.9844 24.8555ZM51.3281 31.1992C51.0547 30.0234 50.125 29.2578 48.5117 29.2578C46.8438 29.2578 45.6406 30.1328 45.668 31.2539C45.6406 32.1289 46.3516 32.7578 47.9922 33.1406L50.3438 33.6875C53.0781 34.2891 54.3906 35.6016 54.418 37.707C54.3906 40.3867 52.1484 42.3008 48.3477 42.3008C44.793 42.3008 42.6602 40.7148 42.3047 37.9531H45.2852C45.5312 39.293 46.5703 39.9492 48.3203 39.9492C50.207 39.9492 51.4102 39.1836 51.4375 37.9258C51.4102 36.9688 50.6992 36.3398 49.1406 35.9844L46.8164 35.4922C44.1367 34.8906 42.7422 33.4688 42.7422 31.418C42.7422 28.7656 45.0391 26.9609 48.4844 26.9609C51.793 26.9609 53.8438 28.6562 54.1445 31.1992H51.3281ZM66.6953 35.8203V27.1523H69.5938V42H66.75V39.4297H66.5859C65.9023 41.0156 64.3711 42.1914 62.1562 42.1914C59.2852 42.1914 57.2617 40.2773 57.2617 36.5859V27.1523H60.1875V36.2305C60.1875 38.2539 61.418 39.5391 63.1953 39.5391C64.8086 39.5391 66.6953 38.3633 66.6953 35.8203ZM72.4648 37.8164C72.4648 34.4258 75.3359 33.5508 78.0156 33.3594C79 33.291 81.2285 33.168 81.9258 33.1406L81.8984 31.9648C81.8984 30.2969 80.8867 29.3125 78.8906 29.3125C77.168 29.3125 76.1289 30.1055 75.8281 31.1992H72.9297C73.2031 28.7383 75.5 26.9609 79 26.9609C81.3516 26.9609 84.8242 27.8359 84.8242 32.1289V42H81.9805V39.9766H81.8711C81.2969 41.0977 79.9297 42.3281 77.4688 42.3281C74.6523 42.3281 72.4648 40.7148 72.4648 37.8164ZM75.3086 37.8438C75.3086 39.2656 76.4844 40.0039 78.125 40.0039C80.5039 40.0039 81.9258 38.418 81.9258 36.6406V35.2734L78.4258 35.5195C76.5117 35.6562 75.3086 36.3672 75.3086 37.8438ZM91.2773 22.2031V42H88.3516V22.2031H91.2773ZM101.914 42V22.2031H108.969C113.562 22.2031 115.832 24.9648 115.832 28.6289C115.832 32.2656 113.562 35.0547 108.969 35.0547H104.922V42H101.914ZM104.922 32.4844H108.668C111.594 32.4844 112.797 30.8438 112.797 28.6289C112.797 26.3867 111.594 24.7734 108.668 24.7734H104.922V32.4844ZM118.758 42V27.1523H121.574V29.5039H121.738C122.285 27.918 123.762 26.9336 125.512 26.9336C125.867 26.9336 126.441 26.9609 126.742 26.9883V29.7773C126.496 29.7227 125.812 29.6133 125.211 29.6133C123.188 29.6133 121.684 31.0078 121.684 32.9492V42H118.758ZM134.727 42.3008C130.516 42.3008 127.781 39.2383 127.781 34.6445C127.781 30.0234 130.516 26.9609 134.727 26.9609C138.91 26.9609 141.645 30.0234 141.645 34.6445C141.645 39.2383 138.91 42.3008 134.727 42.3008ZM134.727 39.8672C137.406 39.8672 138.691 37.4883 138.691 34.6445C138.691 31.8008 137.406 29.3672 134.727 29.3672C131.992 29.3672 130.707 31.8008 130.707 34.6445C130.707 37.4883 131.992 39.8672 134.727 39.8672ZM144.516 27.1523H147.441V42.957C147.441 45.9648 145.773 47.5781 142.711 47.5781C142.52 47.5781 142.328 47.5781 142.109 47.5508V45.0625H142.574C143.941 45.0625 144.516 44.2969 144.516 42.9297V27.1523ZM145.965 24.8555C144.953 24.8555 144.105 24.0898 144.105 23.1328C144.105 22.1758 144.953 21.4102 145.965 21.4102C146.949 21.4102 147.797 22.1758 147.797 23.1328C147.797 24.0898 146.949 24.8555 145.965 24.8555ZM157.395 42.3008C153.02 42.3008 150.34 39.293 150.34 34.6719C150.34 30.1055 153.074 26.9609 157.203 26.9609C160.594 26.9609 163.793 29.0664 163.793 34.4258V35.4648H153.238C153.32 38.2812 154.975 39.8945 157.422 39.8945C159.09 39.8945 160.156 39.1836 160.648 38.2812H163.602C162.945 40.6875 160.648 42.3008 157.395 42.3008ZM153.266 33.2773H160.922C160.922 31.0078 159.473 29.3672 157.23 29.3672C154.893 29.3672 153.375 31.1719 153.266 33.2773ZM172.98 42.3008C168.66 42.3008 166.035 39.1016 166.035 34.6445C166.035 30.1055 168.742 26.9609 172.926 26.9609C176.316 26.9609 178.777 28.957 179.078 31.9648H176.234C175.934 30.5703 174.812 29.3945 172.98 29.3945C170.574 29.3945 168.961 31.3906 168.961 34.5625C168.961 37.8164 170.547 39.8125 172.98 39.8125C174.621 39.8125 175.879 38.9102 176.234 37.2969H179.078C178.75 40.168 176.48 42.3008 172.98 42.3008ZM188.785 27.1523V29.4766H185.75V37.625C185.75 39.293 186.598 39.5938 187.527 39.6211C187.938 39.6211 188.594 39.5664 189.004 39.5391V42.082C188.594 42.1367 187.965 42.1914 187.172 42.1914C184.875 42.1914 182.824 40.9336 182.852 38.2266V29.4766H180.664V27.1523H182.852V23.5977H185.75V27.1523H188.785Z" fill="#747474"/>
</svg>
