<svg width="345" height="65" viewBox="0 0 345 65" fill="none" xmlns="http://www.w3.org/2000/svg">
<rect width="345" height="65" fill="#0035FF"/>
<g clip-path="url(#clip0_88_1359)">
<path d="M33.0715 45.9343L33.9787 50.2393C34.6121 50.3649 35.2568 50.459 35.913 50.5218C38.0241 50.7215 40.0839 50.5703 42.0467 50.1252L42.9596 45.9343H33.0715Z" fill="white"/>
<path d="M35.6763 53.0266C35.294 52.9895 34.9117 52.9438 34.5352 52.8896L35.1542 55.8252H40.8058L41.462 52.8069C40.2552 53.0151 39.0199 53.1264 37.7646 53.1264C37.0742 53.1264 36.3753 53.095 35.6735 53.0266H35.6763Z" fill="white"/>
<path d="M56.6621 20.0016L59.5007 16.6352L56.0259 12.179L51.7466 14.233C53.7037 15.8563 55.3669 17.8134 56.6592 20.0016H56.6621Z" fill="white"/>
<path d="M49.2161 15.4484L46.9053 16.5581L52.9848 24.3579L54.9304 22.0499C53.5496 19.451 51.5926 17.1886 49.2161 15.4484Z" fill="white"/>
<path d="M35.913 50.5217C35.2569 50.4589 34.6121 50.3648 33.9788 50.2392L34.5379 52.8896C34.9145 52.9438 35.2939 52.9923 35.6791 53.0265C36.3809 53.0921 37.077 53.1264 37.7702 53.1264C39.0255 53.1264 40.2608 53.0122 41.4676 52.8068L42.0524 50.1251C40.0896 50.5702 38.027 50.7214 35.9187 50.5217H35.913Z" fill="white"/>
<path d="M54.9304 22.0528L56.6621 20.0016C55.3669 17.8134 53.7065 15.8592 51.7494 14.233L49.2161 15.4484C51.5954 17.1915 53.5496 19.4538 54.9304 22.0499V22.0528Z" fill="white"/>
<path d="M29.1033 16.2158L26.7297 15.1375C24.1992 16.8806 22.0938 19.2142 20.616 21.9558L22.6586 24.4835L29.1033 16.2158Z" fill="white"/>
<path d="M24.1165 13.9506L20.2138 12.179L16.5278 16.9033L18.9128 19.8532C20.2851 17.5766 22.0539 15.5824 24.1136 13.9506H24.1165Z" fill="white"/>
<path d="M26.7269 15.1374L24.1136 13.9506C22.0539 15.5824 20.2822 17.5766 18.9128 19.8532L20.6132 21.9557C22.091 19.2141 24.1964 16.8805 26.7269 15.1374Z" fill="white"/>
<path d="M37.7504 48.2879C47.2134 48.2879 54.8848 40.6165 54.8848 31.1535C54.8848 21.6904 47.2134 14.019 37.7504 14.019C28.2873 14.019 20.616 21.6904 20.616 31.1535C20.616 40.6165 28.2873 48.2879 37.7504 48.2879Z" fill="#0035FF"/>
<path d="M37.7619 48.5846C37.2141 48.5846 36.6607 48.5589 36.1044 48.5047C31.4684 48.0654 27.2832 45.8487 24.3162 42.2598C21.3492 38.6708 19.957 34.1433 20.3964 29.5074C21.3036 19.9388 29.8309 12.8922 39.3937 13.8023C48.9623 14.7095 56.0061 23.231 55.0988 32.7996C54.243 41.809 46.6343 48.5846 37.759 48.5846H37.7619ZM37.7191 14.3158C33.8163 14.3158 30.0677 15.6595 27.0208 18.1786C23.5545 21.0457 21.412 25.0883 20.9869 29.5673C20.5619 34.0463 21.9056 38.4198 24.7727 41.886C27.6399 45.3523 31.6824 47.4948 36.1614 47.9199C45.4105 48.7929 53.6382 41.9887 54.514 32.7454C55.3898 23.5021 48.5829 15.2686 39.3395 14.3928C38.7975 14.3415 38.2583 14.3158 37.7191 14.3158Z" fill="white"/>
<path d="M37.7561 41.9744C43.5654 41.9744 48.2747 37.2651 48.2747 31.4558C48.2747 25.6466 43.5654 20.9373 37.7561 20.9373C31.9469 20.9373 27.2375 25.6466 27.2375 31.4558C27.2375 37.2651 31.9469 41.9744 37.7561 41.9744Z" fill="white"/>
<path d="M52.7393 26.6202L54.4225 26.0639C52.2401 19.488 46.346 14.4698 39.017 13.7737L38.8486 15.5396C45.4559 16.1672 50.768 20.6891 52.7365 26.6174L52.7393 26.6202Z" fill="white"/>
<path d="M38.0156 46.753L38.1183 48.5247C45.0366 48.1167 51.4071 43.7233 53.9746 36.825L52.3114 36.2059C49.9949 42.4252 44.252 46.3879 38.0156 46.753Z" fill="white"/>
<path d="M25.2434 22.3466L23.8569 21.2112C22.0966 24.0897 20.4363 28.4604 20.4505 31.7982L22.2222 31.9095C22.1879 28.8569 23.1522 25.1111 25.2434 22.3466Z" fill="white"/>
<path d="M38.0385 53.1777C37.3367 53.1777 36.6263 53.1435 35.9245 53.0779C23.8483 51.931 14.9558 41.1757 16.0998 29.0994C16.6191 23.6219 19.1581 18.5694 23.2463 14.8721C27.3088 11.2004 32.5439 9.17773 37.9843 9.17773C38.6775 9.17773 39.3822 9.21197 40.0755 9.27759C52.1517 10.4216 61.0441 21.177 59.9001 33.2532C59.3467 39.1016 56.5452 44.3852 52.0176 48.131C48.0236 51.4318 43.1908 53.1777 38.0385 53.1777ZM37.9843 12.2018C33.2913 12.2018 28.778 13.9478 25.2747 17.1145C21.7485 20.304 19.5604 24.6603 19.1125 29.3847C18.1254 39.8006 25.7939 49.0753 36.2098 50.0624C36.8175 50.1194 37.4308 50.148 38.0356 50.148C42.4776 50.148 46.6456 48.6417 50.0891 45.7945C53.9947 42.565 56.4082 38.009 56.8875 32.9622V32.9479C57.3639 27.9155 55.8462 22.9942 52.6139 19.0858C49.3816 15.1745 44.8255 12.7581 39.7902 12.2817C39.1911 12.2246 38.5834 12.1961 37.9843 12.1961V12.2018Z" fill="white"/>
<path d="M38.0386 52.3675C37.3625 52.3675 36.6835 52.3362 36.0016 52.2705C24.3676 51.1693 15.8032 40.8077 16.9044 29.1765C18.0085 17.5453 28.373 8.97806 39.9985 10.0821C51.6297 11.1862 60.1969 21.545 59.0929 33.1762C58.5594 38.8106 55.8605 43.9002 51.4985 47.5062C47.6642 50.6758 42.9455 52.3675 38.0357 52.3675H38.0386ZM37.9844 11.3944C27.9109 11.3944 19.2752 19.083 18.3052 29.3105C17.2753 40.1686 25.2719 49.8427 36.1329 50.8698C41.3936 51.369 46.5316 49.7885 50.6055 46.4221C54.6766 43.0557 57.1957 38.3028 57.6949 33.045C58.7248 22.1869 50.7282 12.5128 39.8673 11.4857C39.2368 11.4258 38.6063 11.3973 37.9844 11.3973V11.3944Z" fill="#0035FF"/>
<path d="M47.3018 20.0215L49.5955 22.9657L54.0289 19.6307L55.2271 18.7092L58.8673 15.8221L57.1841 13.6625L56.9046 13.303L56.5708 12.8779L52.7993 15.8678L51.5896 16.7949L47.3018 20.0215Z" fill="#0035FF"/>
<path d="M24.5957 21.8189L26.9921 18.7435L24.1706 16.5439L22.9667 15.6053L19.5917 12.975L17.1953 16.0504L20.3905 18.5409L21.5802 19.4681L24.5957 21.8189Z" fill="#0035FF"/>
<path d="M39.8814 46.0684H36.147V51.0438V52.5587V55.8224H36.6519H39.3793H39.8814V52.5159V50.9981V46.0684Z" fill="#0035FF"/>
<path d="M36.3713 36.1923H31.1487V32.2274C31.1487 31.9084 31.2603 31.635 31.4836 31.4071C31.7115 31.1792 31.9827 31.0653 32.2971 31.0653H35.7834V28.2694H31.6819C31.5178 28.2694 31.3811 28.2147 31.2717 28.1053C31.1624 27.9914 31.1077 27.8547 31.1077 27.6952C31.1077 27.5357 31.1624 27.4012 31.2717 27.2919C31.3811 27.1779 31.5178 27.121 31.6819 27.121H35.7834C36.1025 27.121 36.3759 27.2349 36.6038 27.4628C36.8316 27.6861 36.9456 27.955 36.9456 28.2694V31.0653C36.9456 31.3889 36.8316 31.6646 36.6038 31.8925C36.3759 32.1158 36.1025 32.2274 35.7834 32.2274H32.2971V35.0438H36.3713C36.5263 35.0438 36.6607 35.1008 36.7747 35.2147C36.8886 35.3241 36.9456 35.4585 36.9456 35.618C36.9456 35.7775 36.8886 35.9143 36.7747 36.0282C36.6607 36.1376 36.5263 36.1923 36.3713 36.1923ZM43.4342 36.1786H42.86C42.7051 36.1786 42.5706 36.1239 42.4567 36.0145C42.3428 35.9006 42.2858 35.7639 42.2858 35.6044C42.2858 35.4449 42.3405 35.3104 42.4499 35.201C42.5638 35.0871 42.7005 35.0302 42.86 35.0302V31.2362H38.8131C38.6582 31.2362 38.5237 31.1792 38.4098 31.0653C38.2959 30.9514 38.2389 30.8169 38.2389 30.662V27.6815C38.2389 27.5266 38.2959 27.3921 38.4098 27.2782C38.5237 27.1643 38.6582 27.1073 38.8131 27.1073H43.4342C43.5892 27.1073 43.7236 27.1643 43.8375 27.2782C43.9515 27.3921 44.0084 27.5266 44.0084 27.6815V35.6044C44.0084 35.7639 43.9515 35.9006 43.8375 36.0145C43.7282 36.1239 43.5937 36.1786 43.4342 36.1786ZM42.8737 30.0741V28.2694H39.3874V30.0741H42.8737Z" fill="#0035FF"/>
</g>
<path d="M79.7734 22.2031L85.2695 38.3086H85.4883L90.9844 22.2031H94.2383L87.1016 42H83.6289L76.5195 22.2031H79.7734ZM96.5078 42V27.1523H99.4336V42H96.5078ZM97.9844 24.8555C96.9727 24.8555 96.125 24.0898 96.125 23.1328C96.125 22.1758 96.9727 21.4102 97.9844 21.4102C98.9688 21.4102 99.8164 22.1758 99.8164 23.1328C99.8164 24.0898 98.9688 24.8555 97.9844 24.8555ZM111.328 31.1992C111.055 30.0234 110.125 29.2578 108.512 29.2578C106.844 29.2578 105.641 30.1328 105.668 31.2539C105.641 32.1289 106.352 32.7578 107.992 33.1406L110.344 33.6875C113.078 34.2891 114.391 35.6016 114.418 37.707C114.391 40.3867 112.148 42.3008 108.348 42.3008C104.793 42.3008 102.66 40.7148 102.305 37.9531H105.285C105.531 39.293 106.57 39.9492 108.32 39.9492C110.207 39.9492 111.41 39.1836 111.438 37.9258C111.41 36.9688 110.699 36.3398 109.141 35.9844L106.816 35.4922C104.137 34.8906 102.742 33.4688 102.742 31.418C102.742 28.7656 105.039 26.9609 108.484 26.9609C111.793 26.9609 113.844 28.6562 114.145 31.1992H111.328ZM126.695 35.8203V27.1523H129.594V42H126.75V39.4297H126.586C125.902 41.0156 124.371 42.1914 122.156 42.1914C119.285 42.1914 117.262 40.2773 117.262 36.5859V27.1523H120.188V36.2305C120.188 38.2539 121.418 39.5391 123.195 39.5391C124.809 39.5391 126.695 38.3633 126.695 35.8203ZM132.465 37.8164C132.465 34.4258 135.336 33.5508 138.016 33.3594C139 33.291 141.229 33.168 141.926 33.1406L141.898 31.9648C141.898 30.2969 140.887 29.3125 138.891 29.3125C137.168 29.3125 136.129 30.1055 135.828 31.1992H132.93C133.203 28.7383 135.5 26.9609 139 26.9609C141.352 26.9609 144.824 27.8359 144.824 32.1289V42H141.98V39.9766H141.871C141.297 41.0977 139.93 42.3281 137.469 42.3281C134.652 42.3281 132.465 40.7148 132.465 37.8164ZM135.309 37.8438C135.309 39.2656 136.484 40.0039 138.125 40.0039C140.504 40.0039 141.926 38.418 141.926 36.6406V35.2734L138.426 35.5195C136.512 35.6562 135.309 36.3672 135.309 37.8438ZM151.277 22.2031V42H148.352V22.2031H151.277ZM161.914 42V22.2031H168.969C173.562 22.2031 175.832 24.9648 175.832 28.6289C175.832 32.2656 173.562 35.0547 168.969 35.0547H164.922V42H161.914ZM164.922 32.4844H168.668C171.594 32.4844 172.797 30.8438 172.797 28.6289C172.797 26.3867 171.594 24.7734 168.668 24.7734H164.922V32.4844ZM178.758 42V27.1523H181.574V29.5039H181.738C182.285 27.918 183.762 26.9336 185.512 26.9336C185.867 26.9336 186.441 26.9609 186.742 26.9883V29.7773C186.496 29.7227 185.812 29.6133 185.211 29.6133C183.188 29.6133 181.684 31.0078 181.684 32.9492V42H178.758ZM194.727 42.3008C190.516 42.3008 187.781 39.2383 187.781 34.6445C187.781 30.0234 190.516 26.9609 194.727 26.9609C198.91 26.9609 201.645 30.0234 201.645 34.6445C201.645 39.2383 198.91 42.3008 194.727 42.3008ZM194.727 39.8672C197.406 39.8672 198.691 37.4883 198.691 34.6445C198.691 31.8008 197.406 29.3672 194.727 29.3672C191.992 29.3672 190.707 31.8008 190.707 34.6445C190.707 37.4883 191.992 39.8672 194.727 39.8672ZM204.516 27.1523H207.441V42.957C207.441 45.9648 205.773 47.5781 202.711 47.5781C202.52 47.5781 202.328 47.5781 202.109 47.5508V45.0625H202.574C203.941 45.0625 204.516 44.2969 204.516 42.9297V27.1523ZM205.965 24.8555C204.953 24.8555 204.105 24.0898 204.105 23.1328C204.105 22.1758 204.953 21.4102 205.965 21.4102C206.949 21.4102 207.797 22.1758 207.797 23.1328C207.797 24.0898 206.949 24.8555 205.965 24.8555ZM217.395 42.3008C213.02 42.3008 210.34 39.293 210.34 34.6719C210.34 30.1055 213.074 26.9609 217.203 26.9609C220.594 26.9609 223.793 29.0664 223.793 34.4258V35.4648H213.238C213.32 38.2812 214.975 39.8945 217.422 39.8945C219.09 39.8945 220.156 39.1836 220.648 38.2812H223.602C222.945 40.6875 220.648 42.3008 217.395 42.3008ZM213.266 33.2773H220.922C220.922 31.0078 219.473 29.3672 217.23 29.3672C214.893 29.3672 213.375 31.1719 213.266 33.2773ZM232.98 42.3008C228.66 42.3008 226.035 39.1016 226.035 34.6445C226.035 30.1055 228.742 26.9609 232.926 26.9609C236.316 26.9609 238.777 28.957 239.078 31.9648H236.234C235.934 30.5703 234.812 29.3945 232.98 29.3945C230.574 29.3945 228.961 31.3906 228.961 34.5625C228.961 37.8164 230.547 39.8125 232.98 39.8125C234.621 39.8125 235.879 38.9102 236.234 37.2969H239.078C238.75 40.168 236.48 42.3008 232.98 42.3008ZM248.785 27.1523V29.4766H245.75V37.625C245.75 39.293 246.598 39.5938 247.527 39.6211C247.938 39.6211 248.594 39.5664 249.004 39.5391V42.082C248.594 42.1367 247.965 42.1914 247.172 42.1914C244.875 42.1914 242.824 40.9336 242.852 38.2266V29.4766H240.664V27.1523H242.852V23.5977H245.75V27.1523H248.785Z" fill="white"/>
<defs>
<clipPath id="clip0_88_1359">
<rect width="44" height="46.6446" fill="white" transform="translate(16 9.17773)"/>
</clipPath>
</defs>
</svg>
